<?xml version="1.0" encoding="utf-8"?>
<!-- Generator: Adobe Illustrator 27.5.0, SVG Export Plug-In . SVG Version: 6.00 Build 0)  -->
<svg version="1.1" xmlns="http://www.w3.org/2000/svg" xmlns:xlink="http://www.w3.org/1999/xlink" x="0px" y="0px"
	 viewBox="0 0 512 512" style="enable-background:new 0 0 512 512;" xml:space="preserve">
<g id="_x30_4">
</g>
<g id="_x30_3">
	<g>
		<g>
			<path style="fill:#FFFFFF;" d="M380.441,119.846c0,0-2.051-17.321,14.512-11.509c16.563,5.812,10.936,21.573,4.664,16.073
				c-6.272-5.5,5.868-23.719,18.491-15.372s9.569,24.187,0.524,25.241c-9.045,1.054,5.707-18.414,16.924-6.126
				c11.217,12.288-13.907,34.097-23.958,25.827c-10.051-8.27-1.931-21.3,0.401-13.264c2.332,8.036-4.341,15.8-22.35,15.255
				c-18.01-0.545-9.449-28.166-3.257-20.013c6.191,8.153-4.381,17.126-16.964,7.452
				C356.844,133.736,371.596,114.268,380.441,119.846z"/>
			<path style="fill:#261D2A;" d="M391.414,157.152c-0.587,0-1.186-0.009-1.799-0.027c-5.904-0.18-10.02-3.26-11.416-8.493
				c-3.102-0.435-6.359-1.912-9.474-4.306c-4.896-3.765-6.523-9.404-4.462-15.469c2.124-6.254,7.724-11.154,12.748-11.154
				c0.759,0,1.493,0.108,2.194,0.318c0.009-2.394,0.429-6.457,2.872-9.206c2.764-3.109,7.272-3.666,13.258-1.567
				c2.297,0.805,4.308,1.84,5.987,3.082c2.859-2.938,6.474-4.602,10.067-4.602c2.526,0,4.999,0.789,7.354,2.347
				c5.456,3.607,8.724,9.088,8.924,14.851c3.189,0.135,6.202,1.666,8.74,4.448c3.464,3.794,4.069,8.838,1.705,14.202
				c-3.61,8.193-13.439,15.381-21.033,15.383c0,0-0.001,0-0.002,0c-2.438,0-4.528-0.703-6.212-2.09
				c-0.786-0.645-1.495-1.344-2.119-2.083C404.862,155.649,398.906,157.152,391.414,157.152z M380.643,148.754
				c0.99,2.926,3.394,5.891,9.041,6.063c9.584,0.291,14.953-1.86,17.718-3.905c-2.465-4.112-2.229-8.581-0.806-11.341
				c0.829-1.608,2.022-2.53,3.272-2.53c0.846,0,2.392,0.437,3.238,3.353c1.168,4.027,0.213,7.934-2.62,10.878
				c0.539,0.643,1.156,1.251,1.843,1.817c1.261,1.035,2.857,1.562,4.747,1.562c0.001,0,0.001,0,0.002,0
				c6.673-0.002,15.692-6.678,18.921-14.006c1.396-3.168,2.303-7.769-1.297-11.715c-2.14-2.343-4.535-3.587-7.123-3.698
				c-0.616,5.519-4.128,9.645-8.816,10.193c-3.024,0.334-4.042-1.236-4.091-2.708c-0.11-3.267,4.646-8.694,10.688-9.656
				c-0.153-5.035-3.048-9.859-7.892-13.061c-4.757-3.147-10.278-2.304-14.383,1.824c3.858,3.774,4.543,8.369,3.432,11.422
				c-0.779,2.135-2.42,3.463-4.286,3.463c0,0,0,0-0.001,0c-1.14,0-2.308-0.496-3.377-1.434c-3.461-3.035-2.253-8.858,0.964-13.185
				c-1.468-1.062-3.229-1.957-5.249-2.665c-5.021-1.763-8.635-1.472-10.765,0.918c-2.891,3.247-2.226,9.305-2.22,9.366
				c0.051,0.442-0.155,0.875-0.531,1.112c-0.374,0.241-0.852,0.241-1.23,0c-0.851-0.537-1.797-0.809-2.815-0.809
				c-4.029,0-8.767,4.302-10.563,9.587c-1.723,5.073-0.38,9.771,3.683,12.896c2.54,1.952,5.15,3.222,7.633,3.722
				c-0.448-4.457,0.961-8.788,2.776-11.014c1.017-1.247,2.197-1.905,3.411-1.905c0.854,0,2.13,0.34,3.36,1.959
				c2.187,2.881,2.66,6.105,1.299,8.849C387.231,146.885,384.278,148.596,380.643,148.754z M409.868,139.35
				c-0.217,0-0.74,0.347-1.221,1.281c-1.041,2.02-1.245,5.456,0.504,8.687c2.016-2.304,2.635-5.197,1.741-8.279
				C410.534,139.81,410.075,139.35,409.868,139.35z M383.95,135.607c-0.49,0-1.067,0.374-1.624,1.057
				c-1.548,1.896-2.717,5.954-2.21,9.792c2.979-0.007,5.379-1.267,6.425-3.375c0.957-1.928,0.568-4.27-1.068-6.426
				C385.109,136.178,384.551,135.607,383.95,135.607z M425.227,125.437c-4.793,1.024-8.305,5.467-8.247,7.203
				c0.007,0.21,0.018,0.525,0.98,0.525c0.166,0,0.345-0.011,0.537-0.034C421.965,132.728,424.602,129.642,425.227,125.437z
				 M401.582,113.584c-2.776,3.767-3.355,8.071-1.206,9.956c1.633,1.432,3.244,0.922,3.974-1.084
				C405.192,120.145,404.613,116.615,401.582,113.584z"/>
		</g>
		<g>
			<path style="fill:#FFFFFF;" d="M96.611,402.663c0,0-2.051-17.321,14.512-11.509s10.936,21.573,4.664,16.073
				c-6.272-5.5,5.868-23.719,18.491-15.372c12.623,8.348,9.569,24.187,0.524,25.241c-9.045,1.054,5.707-18.414,16.924-6.126
				s-13.907,34.097-23.958,25.827c-10.05-8.27-1.931-21.3,0.401-13.264c2.332,8.036-4.341,15.8-22.35,15.255
				s-9.449-28.166-3.257-20.013c6.191,8.153-4.381,17.126-16.964,7.452S87.766,397.085,96.611,402.663z"/>
			<path style="fill:#261D2A;" d="M107.584,439.969c-0.587,0-1.186-0.009-1.799-0.027c-5.904-0.18-10.02-3.26-11.416-8.493
				c-3.102-0.435-6.359-1.912-9.474-4.306c-4.896-3.765-6.523-9.404-4.462-15.469c2.124-6.254,7.724-11.154,12.748-11.154
				c0.759,0,1.493,0.108,2.194,0.318c0.009-2.394,0.429-6.457,2.872-9.206c2.764-3.111,7.272-3.666,13.258-1.567
				c2.297,0.805,4.308,1.84,5.987,3.082c2.859-2.938,6.474-4.602,10.067-4.602c2.526,0,4.999,0.789,7.354,2.347
				c5.456,3.607,8.724,9.088,8.924,14.851c3.189,0.135,6.202,1.666,8.74,4.448c3.464,3.794,4.069,8.838,1.705,14.202
				c-3.61,8.193-13.439,15.381-21.033,15.383c0,0-0.001,0-0.002,0c-2.438,0-4.528-0.703-6.212-2.09
				c-0.786-0.645-1.495-1.344-2.119-2.083C121.032,438.465,115.077,439.969,107.584,439.969z M96.813,431.571
				c0.99,2.926,3.394,5.891,9.041,6.063c9.583,0.293,14.953-1.86,17.718-3.905c-2.465-4.112-2.229-8.581-0.806-11.341
				c0.829-1.608,2.022-2.53,3.272-2.53c0.846,0,2.392,0.437,3.238,3.353c1.168,4.027,0.213,7.934-2.62,10.878
				c0.539,0.643,1.156,1.251,1.843,1.817c1.261,1.035,2.857,1.562,4.747,1.562c0.001,0,0.001,0,0.002,0
				c6.673-0.002,15.692-6.678,18.921-14.006c1.396-3.168,2.303-7.769-1.297-11.715c-2.14-2.343-4.535-3.587-7.123-3.698
				c-0.616,5.519-4.128,9.645-8.816,10.193c-3.026,0.329-4.042-1.236-4.091-2.708c-0.11-3.267,4.646-8.694,10.688-9.656
				c-0.153-5.035-3.048-9.859-7.892-13.061c-4.757-3.147-10.28-2.304-14.383,1.824c3.858,3.774,4.543,8.369,3.432,11.422
				c-0.779,2.135-2.42,3.463-4.286,3.463c0,0,0,0-0.001,0c-1.14,0-2.308-0.496-3.377-1.434c-3.461-3.035-2.253-8.858,0.964-13.185
				c-1.468-1.062-3.229-1.957-5.249-2.665c-5.022-1.763-8.638-1.472-10.765,0.918c-2.891,3.247-2.226,9.305-2.22,9.366
				c0.051,0.442-0.155,0.875-0.531,1.112c-0.374,0.241-0.852,0.241-1.23,0c-0.851-0.537-1.797-0.809-2.815-0.809
				c-4.029,0-8.767,4.302-10.563,9.587c-1.723,5.073-0.38,9.771,3.683,12.896c2.54,1.952,5.15,3.222,7.633,3.722
				c-0.448-4.457,0.961-8.788,2.776-11.014c1.017-1.247,2.197-1.905,3.411-1.905c0.854,0,2.13,0.34,3.36,1.959
				c2.187,2.881,2.66,6.105,1.299,8.849C103.401,429.702,100.448,431.413,96.813,431.571z M126.039,422.167
				c-0.217,0-0.74,0.347-1.221,1.281c-1.041,2.02-1.245,5.456,0.504,8.687c2.016-2.304,2.635-5.197,1.741-8.279
				C126.704,422.627,126.245,422.167,126.039,422.167z M100.12,418.424c-0.49,0-1.067,0.374-1.624,1.057
				c-1.548,1.896-2.717,5.954-2.21,9.792c2.979-0.007,5.379-1.267,6.425-3.375c0.957-1.928,0.568-4.27-1.068-6.426
				C101.28,418.995,100.721,418.424,100.12,418.424z M141.397,408.254c-4.793,1.024-8.305,5.467-8.247,7.203
				c0.007,0.21,0.018,0.525,0.98,0.525c0.166,0,0.345-0.011,0.537-0.034C138.135,415.545,140.772,412.459,141.397,408.254z
				 M117.753,396.401c-2.776,3.767-3.355,8.071-1.206,9.956c1.632,1.434,3.244,0.922,3.974-1.084
				C121.363,402.962,120.783,399.432,117.753,396.401z"/>
		</g>
		<path style="fill:#261D2A;" d="M81.243,203.613c-0.162,0-0.325-0.034-0.477-0.104c-2.918-1.323-28.404-13.23-24.849-23.276
			c1.029-2.908,3.438-4.511,6.784-4.511c1.948,0,4.202,0.566,6.353,1.576c1.188-3.779,3.837-5.993,7.431-6.146
			c0.005,0,0.008,0,0.012,0c1.158,0,2.095,0.44,2.86,1.267c4.833,5.228,3.235,27.596,3.037,30.13
			c-0.029,0.374-0.24,0.712-0.563,0.904C81.65,203.559,81.447,203.613,81.243,203.613z M62.701,178.03
			c-2.361,0-3.912,1.001-4.609,2.974c-2.268,6.412,13.984,15.784,22.117,19.696c0.463-7.555,0.705-23.198-2.546-26.715
			c-0.437-0.473-0.794-0.528-1.025-0.528c-3.537,0.149-4.945,2.902-5.509,4.976c2.584,1.637,5.026,4.097,4.829,6.579
			c-0.085,1.062-0.688,2.516-3.086,3.413c-0.284,0.108-0.576,0.162-0.865,0.162c-0.534,0-1.322-0.185-2.045-1.064
			c-1.287-1.567-1.846-4.791-1.42-7.909C66.551,178.603,64.459,178.03,62.701,178.03z M70.728,180.945
			c-0.131,2.277,0.349,4.302,1.015,5.111c0.151,0.185,0.25,0.223,0.263,0.223c1.068-0.395,1.606-0.877,1.651-1.45
			C73.729,183.923,72.743,182.406,70.728,180.945z"/>
		<path style="fill:#261D2A;" d="M483.946,333.155c-0.204,0-0.407-0.054-0.587-0.16c-0.323-0.192-0.534-0.53-0.563-0.904
			c-0.198-2.534-1.797-24.902,3.035-30.13c0.768-0.83,1.708-1.269,2.72-1.269c3.731,0.156,6.393,2.372,7.583,6.148
			c2.152-1.01,4.406-1.576,6.354-1.576c3.346,0,5.755,1.603,6.784,4.511c3.554,10.049-21.932,21.953-24.849,23.276
			C484.27,333.122,484.108,333.155,483.946,333.155z M488.597,303.002c-0.284,0-0.639,0.056-1.072,0.525
			c-3.252,3.517-3.008,19.16-2.545,26.715c8.132-3.914,24.384-13.284,22.117-19.696c-0.699-1.973-2.249-2.974-4.609-2.974
			c-1.758,0-3.851,0.573-5.841,1.585c0.427,3.118-0.133,6.344-1.419,7.909c-0.723,0.882-1.512,1.066-2.046,1.066c0,0,0,0-0.001,0
			c-0.288,0-0.58-0.054-0.865-0.162c-2.397-0.897-3.001-2.352-3.085-3.413c-0.197-2.482,2.246-4.942,4.829-6.581
			c-0.562-2.072-1.965-4.827-5.453-4.974C488.603,303.002,488.6,303.002,488.597,303.002z M494.459,310.49
			c-2.015,1.461-3.001,2.978-2.928,3.885c0.045,0.573,0.583,1.055,1.594,1.436c0.081,0,0.169-0.025,0.319-0.21
			C494.111,314.789,494.591,312.765,494.459,310.49z"/>
		<polygon style="fill:#D4AE29;" points="472.932,369.991 469.887,354.169 482.857,362.114 495.171,355.708 494.739,368.497 
			504.636,378.993 491.608,380.841 485.434,394.98 478.876,380.38 464.51,380.71 		"/>
		<polygon style="fill:#D4AE29;" points="48.975,50.802 45.93,34.979 58.9,42.924 71.214,36.518 70.782,49.307 80.679,59.803 
			67.651,61.651 61.477,75.79 54.918,61.191 40.553,61.521 		"/>
		<path style="fill:#261D2A;" d="M320.308,97.336l-0.027-0.021c-3.476-2.696-4.111-7.72-1.414-11.2
			c2.684-3.464,7.693-4.108,11.166-1.437c1.711,1.328,2.787,3.213,3.054,5.329c0.267,2.113-0.305,4.207-1.61,5.891
			C328.791,99.362,323.78,100.006,320.308,97.336z M328.647,86.525c-2.489-1.914-6.048-1.455-7.955,1.005
			c-1.917,2.473-1.466,6.044,1.004,7.961l-0.684,0.93l0.703-0.915c2.467,1.898,6.028,1.44,7.939-1.021
			c0.928-1.197,1.335-2.684,1.143-4.188C330.608,88.792,329.843,87.453,328.647,86.525z"/>
		<path style="fill:#261D2A;" d="M494.325,209.297l-0.027-0.021c-3.476-2.696-4.111-7.72-1.414-11.2
			c2.684-3.464,7.693-4.108,11.166-1.437c1.711,1.328,2.787,3.213,3.054,5.329c0.267,2.113-0.305,4.207-1.61,5.891
			C502.808,211.322,497.797,211.966,494.325,209.297z M502.663,198.485c-2.489-1.914-6.048-1.455-7.955,1.005
			c-1.917,2.473-1.466,6.044,1.004,7.961l-0.684,0.93l0.703-0.915c2.467,1.898,6.028,1.44,7.939-1.021
			c0.928-1.197,1.335-2.684,1.143-4.188C504.625,200.752,503.86,199.413,502.663,198.485z"/>
		<path style="fill:#261D2A;" d="M17.102,332.32l-0.027-0.021c-3.476-2.696-4.111-7.72-1.414-11.2
			c2.684-3.464,7.693-4.108,11.166-1.437c1.711,1.328,2.787,3.213,3.054,5.329c0.267,2.113-0.305,4.207-1.61,5.891
			C25.585,334.345,20.573,334.99,17.102,332.32z M25.44,321.508c-2.489-1.914-6.048-1.455-7.955,1.005
			c-1.917,2.473-1.466,6.044,1.004,7.961l-0.684,0.93l0.703-0.915c2.467,1.898,6.028,1.44,7.939-1.021
			c0.928-1.197,1.335-2.684,1.143-4.188C27.401,323.776,26.636,322.437,25.44,321.508z"/>
		<path style="fill:#261D2A;" d="M375.937,378.748l-0.027-0.021c-3.476-2.696-4.111-7.72-1.414-11.2
			c2.684-3.464,7.693-4.108,11.166-1.437c1.711,1.328,2.787,3.213,3.054,5.329c0.267,2.113-0.305,4.207-1.61,5.891
			C384.42,380.773,379.408,381.417,375.937,378.748z M384.275,367.936c-2.489-1.914-6.048-1.455-7.955,1.005
			c-1.917,2.473-1.466,6.044,1.004,7.961l-0.684,0.93l0.703-0.915c2.467,1.898,6.028,1.44,7.939-1.021
			c0.928-1.197,1.335-2.684,1.143-4.188C386.236,370.203,385.471,368.864,384.275,367.936z"/>
		<path style="fill:#261D2A;" d="M106.474,88.102l-0.027-0.021c-3.476-2.696-4.111-7.72-1.414-11.2
			c2.684-3.464,7.693-4.108,11.166-1.437c1.711,1.328,2.787,3.213,3.054,5.329c0.267,2.113-0.305,4.207-1.61,5.891
			C114.957,90.127,109.946,90.771,106.474,88.102z M114.813,77.29c-2.489-1.914-6.048-1.455-7.955,1.005
			c-1.917,2.473-1.466,6.044,1.004,7.961l-0.684,0.93l0.703-0.915c2.467,1.898,6.028,1.44,7.939-1.021
			c0.928-1.197,1.335-2.684,1.143-4.188C116.774,79.557,116.009,78.218,114.813,77.29z"/>
		<path style="fill:#261D2A;" d="M107.112,22.185l-0.007,0l-4.463-0.016l4.729-3.207c0.527-0.358,0.665-1.076,0.307-1.604
			c-0.36-0.53-1.082-0.661-1.603-0.307l-6.379,4.327l0.141-7.457c0.013-0.638-0.494-1.163-1.132-1.176h-0.007
			c-0.633-0.008-1.156,0.497-1.169,1.132l-0.125,6.581l-3.901-4.234c-0.433-0.466-1.161-0.5-1.631-0.066
			c-0.468,0.431-0.497,1.164-0.066,1.631l4.014,4.356l-7.392-0.026c-0.638-0.002-1.156,0.512-1.158,1.151
			c-0.002,0.634,0.506,1.15,1.139,1.158l0.011,0l6.743,0.024l-5.269,3.574c-0.528,0.358-0.665,1.076-0.307,1.604
			c0.221,0.325,0.577,0.501,0.94,0.506c0.23,0.003,0.461-0.062,0.663-0.199l6.114-4.147l-0.142,7.512
			c-0.013,0.638,0.494,1.163,1.132,1.176l0.007,0c0.633,0.008,1.156-0.497,1.169-1.132l0.135-7.095l4.159,4.513
			c0.225,0.242,0.527,0.368,0.834,0.372c0.284,0.004,0.571-0.096,0.797-0.305c0.468-0.431,0.497-1.164,0.066-1.632l-4.355-4.726
			l5.993,0.021c0.638,0.002,1.156-0.512,1.158-1.151C108.257,22.71,107.75,22.194,107.112,22.185z"/>
		<path style="fill:#261D2A;" d="M506.455,239.051l-0.007,0l-4.463-0.016l4.729-3.207c0.527-0.358,0.665-1.076,0.307-1.604
			c-0.36-0.53-1.082-0.661-1.603-0.307l-6.379,4.327l0.141-7.457c0.013-0.638-0.494-1.163-1.132-1.176h-0.007
			c-0.633-0.008-1.156,0.497-1.169,1.132l-0.125,6.581l-3.901-4.234c-0.433-0.466-1.161-0.5-1.631-0.066
			c-0.468,0.431-0.497,1.164-0.066,1.631l4.014,4.356l-7.392-0.026c-0.638-0.002-1.156,0.512-1.158,1.151
			c-0.002,0.634,0.506,1.15,1.139,1.158l0.011,0l6.743,0.024l-5.269,3.574c-0.528,0.358-0.665,1.076-0.307,1.604
			c0.221,0.325,0.577,0.501,0.94,0.506c0.23,0.003,0.461-0.062,0.663-0.199l6.114-4.147l-0.142,7.512
			c-0.013,0.638,0.494,1.163,1.132,1.176l0.007,0c0.633,0.008,1.156-0.497,1.169-1.132l0.134-7.095l4.159,4.513
			c0.225,0.242,0.527,0.368,0.833,0.372c0.284,0.004,0.571-0.096,0.797-0.305c0.468-0.431,0.497-1.164,0.066-1.632l-4.355-4.726
			l5.993,0.021c0.638,0.002,1.156-0.512,1.158-1.151C507.6,239.575,507.093,239.059,506.455,239.051z"/>
		<path style="fill:#261D2A;" d="M266.434,423.112l-0.007,0l-4.463-0.016l4.729-3.207c0.527-0.358,0.665-1.076,0.307-1.604
			c-0.36-0.53-1.082-0.661-1.603-0.307l-6.379,4.327l0.141-7.457c0.013-0.638-0.494-1.163-1.132-1.176h-0.007
			c-0.633-0.008-1.156,0.497-1.169,1.132l-0.125,6.581l-3.901-4.234c-0.433-0.466-1.161-0.5-1.631-0.066
			c-0.468,0.431-0.497,1.164-0.066,1.631l4.014,4.356l-7.392-0.026c-0.638-0.002-1.156,0.512-1.158,1.151
			c-0.002,0.634,0.506,1.15,1.139,1.158l0.011,0l6.743,0.024l-5.269,3.574c-0.528,0.358-0.665,1.076-0.307,1.604
			c0.221,0.325,0.577,0.501,0.94,0.506c0.23,0.003,0.461-0.062,0.663-0.199l6.114-4.147l-0.142,7.512
			c-0.013,0.638,0.494,1.163,1.132,1.176l0.007,0c0.633,0.008,1.156-0.497,1.169-1.132l0.134-7.095l4.159,4.513
			c0.224,0.242,0.527,0.368,0.833,0.372c0.284,0.004,0.571-0.096,0.797-0.305c0.468-0.431,0.497-1.164,0.066-1.632l-4.355-4.726
			l5.993,0.021c0.638,0.002,1.156-0.513,1.158-1.151C267.579,423.637,267.072,423.121,266.434,423.112z"/>
		<path style="fill:#261D2A;" d="M410.987,251.442c-0.308,0-0.608-0.092-0.87-0.271c-1.301-0.879-3.726-5.195-5.662-8.935
			c-3.995,0.446-6.956,0.674-8.808,0.674c-1.721,0-2.726-0.162-3.106-1.021c-0.22-0.494-0.117-1.048,0.274-1.481
			c0.032-0.034,3.07-3.404,7.132-7.621c-4.472-10.227-3.647-11.496-3.246-12.114c0.294-0.451,0.772-0.71,1.313-0.71
			c0.068,0,0.251,0.018,0.319,0.029c1.629,0.293,6.643,2.805,9.938,4.52c6.802-6.378,9.025-7.215,10.198-7.215
			c0.679,0,1.109,0.291,1.349,0.537c0.259,0.264,0.376,0.634,0.315,0.997c-0.008,0.054-0.842,5.091-2.002,11.07
			c10.417,5.966,10.37,6.807,10.328,7.621c-0.024,0.435-0.381,0.936-0.782,1.112c-1.02,0.442-7.599,1.488-11.858,2.113
			c-2.367,9.875-3.591,10.696-4.83,10.696C410.987,251.442,410.987,251.442,410.987,251.442z M406.91,241.948
			c1.947,3.704,3.308,5.864,4.03,6.798c0.421-0.791,1.212-2.766,2.417-7.645C411.222,241.4,409.026,241.691,406.91,241.948z
			 M400.965,235.06c-2.208,2.306-4.06,4.3-5.202,5.542c1.619-0.009,4.215-0.203,7.577-0.566
			C402.521,238.392,401.718,236.71,400.965,235.06z M402.689,233.274c0.961,2.137,2.018,4.351,3.093,6.484
			c2.652-0.313,5.466-0.688,8.15-1.071c0.513-2.234,1.055-4.782,1.615-7.6c-2.246-1.269-4.599-2.554-6.885-3.763
			C406.853,229.056,404.85,231.051,402.689,233.274z M417.659,232.294c-0.439,2.187-0.868,4.207-1.28,6.038
			c4.035-0.602,6.967-1.103,8.679-1.434C423.815,236.005,421.522,234.526,417.659,232.294z M398.732,222.518
			c0.192,1.19,0.953,3.797,2.955,8.477c1.715-1.752,3.326-3.359,4.817-4.798C402.494,224.127,399.994,222.989,398.732,222.518z
			 M410.435,225.652c1.857,0.99,3.746,2.022,5.577,3.048c0.714-3.718,1.288-6.987,1.597-8.782
			C416.592,220.45,414.514,221.873,410.435,225.652z"/>
		<path style="fill:#261D2A;" d="M26.779,193.341c-0.308,0-0.608-0.092-0.87-0.271c-1.301-0.879-3.727-5.197-5.662-8.937
			c-3.995,0.446-6.956,0.674-8.808,0.674c-1.721,0-2.726-0.162-3.106-1.021c-0.22-0.494-0.117-1.048,0.274-1.481
			c1.091-1.208,3.918-4.281,7.133-7.621c-4.473-10.227-3.648-11.496-3.247-12.114c0.294-0.451,0.772-0.71,1.313-0.71
			c0.068,0,0.251,0.018,0.319,0.029c1.629,0.293,6.643,2.805,9.939,4.52c6.802-6.378,9.024-7.215,10.197-7.215
			c0.679,0,1.109,0.291,1.349,0.537c0.258,0.264,0.376,0.634,0.315,0.997c-0.008,0.054-0.842,5.091-2.002,11.07
			c10.417,5.966,10.37,6.807,10.328,7.621c-0.024,0.435-0.381,0.936-0.782,1.112c-1.02,0.442-7.599,1.488-11.858,2.113
			c-2.366,9.877-3.591,10.698-4.83,10.698C26.779,193.341,26.779,193.341,26.779,193.341z M22.7,183.845
			c1.947,3.704,3.309,5.864,4.031,6.8c0.421-0.794,1.212-2.766,2.418-7.648C27.013,183.297,24.816,183.588,22.7,183.845z
			 M16.756,176.959c-2.072,2.162-3.935,4.16-5.202,5.54c1.619-0.009,4.215-0.203,7.576-0.566
			C18.312,180.289,17.51,178.607,16.756,176.959z M18.48,175.171c0.961,2.137,2.018,4.354,3.093,6.484
			c2.652-0.313,5.466-0.688,8.15-1.071c0.514-2.234,1.055-4.782,1.615-7.6c-2.246-1.269-4.598-2.554-6.884-3.763
			C22.646,170.95,20.642,172.948,18.48,175.171z M33.45,174.19c-0.439,2.187-0.868,4.207-1.279,6.038
			c4.034-0.602,6.965-1.102,8.678-1.434C39.606,177.901,37.314,176.422,33.45,174.19z M14.523,164.414
			c0.19,1.19,0.953,3.797,2.957,8.477c1.715-1.752,3.327-3.359,4.816-4.798C18.285,166.024,15.785,164.886,14.523,164.414z
			 M26.226,167.548c1.858,0.99,3.746,2.022,5.577,3.048c0.714-3.716,1.288-6.985,1.597-8.782
			C32.383,162.347,30.305,163.77,26.226,167.548z"/>
		<path style="fill:#261D2A;" d="M189.439,25.982c-0.859,0-1.672,0-3.808-9.009c-7.568-1.56-8.221-2.46-8.44-2.762
			c-0.211-0.291-0.296-0.821-0.194-1.166c0.144-0.485,0.477-1.608,9.191-4.989C189.396,0,190.446,0,191.146,0
			c0.37,0,0.878,0.268,1.094,0.568c0.548,0.755,1.028,2.706,1.751,5.826c0.228,0.978,0.501,2.158,0.661,2.678
			c0.453,0.21,1.452,0.582,2.281,0.891c4.437,1.657,5.58,2.216,5.775,3.283c0.072,0.401-0.139,0.981-0.444,1.249
			c-0.916,0.8-5.246,2.345-7.516,3.12c-3.778,8.308-4.563,8.338-5.257,8.367C189.474,25.982,189.455,25.982,189.439,25.982z
			 M180.138,13.255c1.511,0.455,4.267,1.121,6.674,1.603c0.444,0.088,0.794,0.428,0.897,0.87c0.584,2.507,1.352,5.364,1.911,6.996
			c0.861-1.502,2.169-4.164,3.233-6.518c0.132-0.291,0.379-0.516,0.683-0.618c2.07-0.699,4.409-1.56,5.866-2.176
			c-1.008-0.44-2.383-0.954-3.274-1.285c-2.534-0.947-3.011-1.15-3.333-1.596c-0.281-0.386-0.45-1.03-1.05-3.614
			c-0.225-0.972-0.57-2.462-0.881-3.578c-0.775,1.434-1.864,3.873-2.714,6.036c-0.118,0.3-0.358,0.539-0.66,0.654
			C184.797,11.061,181.741,12.385,180.138,13.255z"/>
		<path style="fill:#261D2A;" d="M430.744,285.689c-0.859,0-1.672,0-3.808-9.007c-7.569-1.56-8.222-2.464-8.44-2.766
			c-0.211-0.289-0.296-0.818-0.194-1.161c0.143-0.485,0.475-1.608,9.191-4.992c3.209-8.056,4.259-8.056,4.959-8.056
			c0.37,0,0.878,0.268,1.094,0.568c0.548,0.755,1.028,2.706,1.751,5.826c0.228,0.978,0.501,2.158,0.661,2.678
			c0.453,0.21,1.451,0.582,2.281,0.893c4.437,1.657,5.58,2.216,5.775,3.283c0.072,0.401-0.139,0.981-0.444,1.249
			c-0.916,0.8-5.246,2.345-7.516,3.12c-3.778,8.306-4.563,8.335-5.257,8.365C430.778,285.689,430.759,285.689,430.744,285.689z
			 M421.443,272.962c1.511,0.458,4.267,1.123,6.673,1.603c0.444,0.088,0.794,0.428,0.897,0.87c0.584,2.507,1.352,5.364,1.911,6.998
			c0.861-1.504,2.169-4.164,3.233-6.518c0.132-0.291,0.379-0.516,0.683-0.618c2.07-0.699,4.41-1.56,5.867-2.176
			c-1.008-0.442-2.384-0.954-3.275-1.287c-2.534-0.947-3.011-1.15-3.333-1.596c-0.281-0.386-0.45-1.03-1.05-3.614
			c-0.225-0.972-0.57-2.462-0.881-3.578c-0.775,1.434-1.864,3.873-2.714,6.036c-0.118,0.3-0.358,0.537-0.66,0.654
			C426.103,270.771,423.047,272.092,421.443,272.962z"/>
		<path style="fill:#261D2A;" d="M47.634,410.901c-0.524,0-1.492,0-3.771-4.633c-2.489-1.971-7.823-6.241-8.473-7.14
			c-0.211-0.291-0.296-0.818-0.194-1.163c0.144-0.485,0.477-1.608,9.191-4.989c3.209-8.056,4.259-8.056,4.959-8.056
			c0.37,0,0.878,0.268,1.094,0.568c0.548,0.755,1.028,2.706,1.751,5.826c0.228,0.979,0.501,2.158,0.661,2.678
			c0.453,0.21,1.453,0.584,2.283,0.893c4.435,1.657,5.577,2.216,5.771,3.283c0.072,0.399-0.139,0.981-0.445,1.247
			c-0.915,0.8-5.244,2.345-7.514,3.12c-3.778,8.308-4.563,8.337-5.257,8.367C47.674,410.901,47.65,410.901,47.634,410.901z
			 M37.921,398.408c1.39,1.236,4.613,3.867,7.58,6.211c0.136,0.108,0.247,0.246,0.322,0.401c0.569,1.175,1.248,2.365,1.732,3.073
			c0.836-1.364,2.318-4.356,3.497-6.969c0.132-0.291,0.379-0.516,0.683-0.618c2.069-0.699,4.407-1.558,5.865-2.176
			c-1.008-0.44-2.381-0.951-3.271-1.285c-2.536-0.947-3.013-1.15-3.335-1.596c-0.281-0.386-0.45-1.03-1.05-3.614
			c-0.225-0.972-0.57-2.462-0.881-3.578c-0.775,1.434-1.864,3.873-2.714,6.036c-0.118,0.3-0.358,0.539-0.66,0.654
			C42.741,396.079,39.356,397.558,37.921,398.408z"/>
		<path style="fill:#261D2A;" d="M366.851,331.443c-2.514-1.914-5.49-2.317-8.845-1.194c-7.243,2.423-13.853,11.26-14.132,11.636
			c-0.37,0.499-0.277,1.203,0.21,1.59c0.033,0.026,0.109,0.085,0.193,0.149c-4.059,3.65-17.482,16.645-16.581,28.207
			c0.405,5.215,3.136,6.763,4.726,7.221c1.249,0.36,2.617,0.287,3.891-0.139c1.377-0.461,2.645-1.336,3.528-2.527
			c0.119-0.161,0.214-0.329,0.314-0.496c8.731-4.496,19.268-18.031,21.188-20.56c0.056-0.014,0.109-0.012,0.166-0.031l0.001,0
			c2.492-0.834,7.537-7.802,8.589-14.167C370.793,336.941,369.67,333.59,366.851,331.443z M346.274,344.941
			c1.048,0.599,2.319,1.177,3.492,1.291c1.341,0.134,2.898-1.365,4.987-3.477c1.695-1.714,3.804-3.846,5.412-4.384
			c0.621-0.208,0.94-0.102,1.126-0.004c0.241,0.127,0.285,0.242,0.308,0.339c0.283,1.221-1.982,4.337-3.481,6.398
			c-1.57,2.16-2.926,4.024-3.162,5.454c-0.057,0.347,0.047,0.701,0.282,0.962c0.222,0.246,1.867,2.019,3.714,3.125
			c-2.586,3.321-10.79,13.453-17.991,18.103c-0.052-0.992-0.362-1.987-0.966-2.92c-1.29-1.991-2.887-3.039-4.746-3.112
			c-1.977-0.078-3.82,1.02-5.164,2.13C331.457,358.643,343.441,347.459,346.274,344.941z M333.062,376.833
			c-1.662-0.478-2.725-2.149-3.021-4.728c0.971-1.126,3.151-3.164,5.123-3.081c1.079,0.044,2.027,0.719,2.897,2.062
			c1.094,1.687,0.564,3.066-0.073,3.924C336.857,376.533,334.74,377.316,333.062,376.833z M367.824,340.755
			c-0.976,5.904-5.54,11.613-6.934,12.308c-1.206-0.487-2.67-1.797-3.496-2.627c0.426-0.992,1.567-2.562,2.593-3.972
			c2.255-3.101,4.385-6.03,3.862-8.279c-0.187-0.804-0.699-1.447-1.48-1.859c-0.867-0.457-1.853-0.504-2.934-0.143
			c-2.13,0.712-4.356,2.963-6.321,4.95c-1.141,1.153-2.56,2.588-3.124,2.803c-1.079-0.105-2.531-0.926-3.536-1.596
			c1.857-2.281,7.014-8.138,12.284-9.901c2.623-0.878,4.82-0.602,6.715,0.842C367.579,334.899,368.376,337.415,367.824,340.755z"/>
		<g>
			<path style="fill:#76AEA6;" d="M288.615,60.615l3.921-6.047l-0.08-0.269l-2.096-7.054c-0.572,0.135-3.501,0.803-7.889,1.794
				c-1.312-2.488,2.998-7.038,2.505-9.12c-0.54-2.349-37.819-18.009-40.741-18.839c-12.176-3.478-19.546,5.448-19.546,5.448
				c-0.435,1.376,26.978,15.45,46.152,25.136c-20.964,4.724-51.184,11.772-51.092,13.219c0,0,3.28,11.896,18.004,10.062
				c3.021-0.372,42.624-6.273,43.732-8.397c0.984-1.958-2.204-7.574-0.111-9.567C285.057,58.81,287.67,60.124,288.615,60.615z"/>
			<path style="fill:#A27298;" d="M308.398,27.637c-8.641-2.796-20.196,4.627-18.346,10.12c1.828,5.489,3.191,8.736,0.313,9.486
				l-0.005,0.001l2.096,7.054c0.035,0.016,0.069,0.031,0.104,0.048c8.533-1.563,19.509-3.672,22.653-6.039
				C320.205,44.537,317.062,30.437,308.398,27.637z M302.893,45.829c-3.247-0.583-5.406-3.689-4.822-6.938
				c0.583-3.248,3.688-5.408,6.934-4.825c3.247,0.583,5.406,3.689,4.823,6.938C309.244,44.252,306.14,46.412,302.893,45.829z"/>
			<path style="fill:#A27298;" d="M313.29,65.812c-2.51-3.125-12.793-7.881-20.73-11.466c-0.036-0.016-0.069-0.031-0.104-0.048
				l0.08,0.269l-3.921,6.047c0.137,0.071,0.241,0.126,0.306,0.161c2.626,1.434,0.5,4.265-2.604,9.149
				c-3.127,4.88,6.285,14.875,15.349,14.276C310.734,83.579,317.202,70.667,313.29,65.812z M297.406,76.392
				c-3.247-0.583-5.406-3.69-4.822-6.938c0.583-3.248,3.688-5.408,6.934-4.825c3.247,0.583,5.406,3.689,4.822,6.938
				C303.757,74.815,300.653,76.975,297.406,76.392z"/>
			<path style="fill:#261D2A;" d="M288.613,61.769c-0.175,0-0.352-0.041-0.517-0.124l-17.774-8.953
				c-0.57-0.286-0.799-0.981-0.513-1.549c0.285-0.573,0.979-0.8,1.549-0.512l17.774,8.953c0.57,0.286,0.799,0.981,0.513,1.549
				C289.443,61.537,289.036,61.769,288.613,61.769z"/>
			<path style="fill:#261D2A;" d="M292.454,55.452c-0.168,0-0.338-0.036-0.499-0.115c-4.329-2.086-9.638-4.737-10.346-5.531
				c-0.425-0.476-0.383-1.206,0.094-1.63c0.473-0.426,1.202-0.381,1.628,0.092c0.557,0.48,5.342,2.926,9.625,4.989
				c0.575,0.275,0.816,0.965,0.54,1.54C293.296,55.211,292.884,55.452,292.454,55.452z"/>
			<path style="fill:#261D2A;" d="M253.47,29.745c-0.152,0-0.306-0.029-0.455-0.095l-8.161-3.517
				c-7.008-3.019-9.177,0.307-9.267,0.446c-0.331,0.539-1.032,0.712-1.577,0.392c-0.541-0.325-0.727-1.012-0.412-1.56
				c0.124-0.219,3.175-5.285,12.17-1.398l8.161,3.517c0.586,0.253,0.855,0.931,0.603,1.517
				C254.344,29.483,253.918,29.745,253.47,29.745z"/>
			<path style="fill:#261D2A;" d="M234.353,73.622c-0.015,0-0.029,0-0.044,0c-6.198-0.007-8.453-4.257-8.546-4.437
				c-0.291-0.566-0.068-1.263,0.499-1.553c0.568-0.295,1.255-0.07,1.549,0.489c0.072,0.135,1.761,3.186,6.501,3.193
				c0.014,0,0.026,0,0.039,0c5.318,0,11.328-1.747,11.388-1.765c0.616-0.178,1.253,0.171,1.432,0.782
				c0.18,0.611-0.169,1.251-0.781,1.432C246.133,71.838,240.009,73.622,234.353,73.622z"/>
		</g>
		<g>
			<path style="fill:#76AEA6;" d="M270.423,473.628l-0.941,7.146l0.188,0.209l4.924,5.467c0.458-0.368,2.815-2.231,6.352-5.014
				c2.254,1.681,0.318,7.644,1.659,9.311c1.497,1.888,41.884-0.014,44.879-0.521c12.488-2.099,15.305-13.328,15.305-13.328
				c-0.199-1.429-30.997-2.341-52.47-2.836c16.896-13.285,41.149-32.65,40.444-33.917c0,0-8.074-9.328-20.579-1.337
				c-2.567,1.636-35.785,24.003-35.872,26.396c-0.047,2.191,5.245,5.889,4.212,8.589
				C274.411,473.727,271.487,473.664,270.423,473.628z"/>
			<path style="fill:#A27298;" d="M266.737,511.912c9.003-1.194,16.244-12.867,12.213-17.03c-4.01-4.169-6.636-6.514-4.36-8.429
				l0.004-0.003l-4.924-5.467c-0.039,0.001-0.076,0.001-0.115,0.002c-7.032,5.082-16.035,11.709-17.856,15.199
				C248.814,501.735,257.712,513.112,266.737,511.912z M263.888,493.12c3.182-0.87,6.466,1.005,7.336,4.188
				c0.87,3.183-1.005,6.469-4.186,7.339c-3.182,0.87-6.466-1.005-7.336-4.188C258.832,497.276,260.706,493.99,263.888,493.12z"/>
			<path style="fill:#A27298;" d="M245.912,479.552c3.609,1.741,14.937,1.611,23.644,1.432c0.039-0.001,0.076-0.001,0.115-0.002
				l-0.188-0.209l0.941-7.146c-0.155-0.005-0.271-0.01-0.345-0.014c-2.987-0.164-2.285-3.635-1.582-9.38
				c0.725-5.751-12.068-10.725-19.993-6.284C240.584,462.413,240.294,476.852,245.912,479.552z M255.705,463.167
				c3.182-0.87,6.466,1.005,7.336,4.188c0.87,3.183-1.005,6.469-4.186,7.339c-3.182,0.87-6.466-1.005-7.336-4.188
				C250.649,467.323,252.523,464.037,255.705,463.167z"/>
			<path style="fill:#261D2A;" d="M290.318,475.215c-0.008,0-0.017,0-0.025,0l-19.895-0.433c-0.638-0.014-1.143-0.541-1.129-1.179
				c0.014-0.636,0.539-1.139,1.179-1.13l19.895,0.433c0.638,0.014,1.142,0.541,1.129,1.179
				C291.458,474.715,290.945,475.215,290.318,475.215z"/>
			<path style="fill:#261D2A;" d="M280.946,482.59c-0.15,0-0.302-0.029-0.448-0.09c-0.708-0.194-6.079-0.343-10.831-0.363
				c-0.638-0.002-1.152-0.521-1.149-1.159c0.002-0.636,0.518-1.15,1.154-1.15c0.001,0,0.003,0,0.004,0
				c4.806,0.02,10.739,0.131,11.719,0.543c0.587,0.248,0.862,0.924,0.615,1.513C281.824,482.324,281.395,482.59,280.946,482.59z"/>
			<path style="fill:#261D2A;" d="M315.914,488.572c-0.617,0-1.129-0.489-1.152-1.112c-0.024-0.636,0.472-1.172,1.11-1.197
				l8.88-0.334c7.634-0.286,8.155-4.223,8.174-4.39c0.068-0.627,0.603-1.114,1.255-1.03c0.628,0.059,1.093,0.6,1.043,1.229
				c-0.02,0.25-0.593,6.13-10.387,6.5l-8.88,0.334C315.944,488.572,315.929,488.572,315.914,488.572z"/>
			<path style="fill:#261D2A;" d="M304.521,447.409c-0.317,0-0.632-0.131-0.86-0.386c-0.425-0.473-0.384-1.204,0.09-1.628
				c0.202-0.18,4.987-4.444,10.108-6.877c5.596-2.663,9.461,0.203,9.623,0.329c0.507,0.386,0.604,1.112,0.217,1.617
				c-0.382,0.51-1.102,0.606-1.609,0.225l0,0c-0.119-0.086-2.955-2.119-7.243-0.086c-4.813,2.286-9.511,6.468-9.558,6.511
				C305.071,447.313,304.796,447.409,304.521,447.409z"/>
		</g>
		<path style="fill:#261D2A;" d="M473.724,170.908c-0.411,0-0.809-0.219-1.017-0.606c-0.302-0.561-0.092-1.263,0.469-1.565
			c1.341-0.721,2.655-1.495,3.903-2.293c0.539-0.345,1.252-0.189,1.593,0.349c0.344,0.537,0.187,1.251-0.349,1.594
			c-1.297,0.832-2.66,1.632-4.052,2.383C474.096,170.863,473.909,170.908,473.724,170.908z M481.482,165.923
			c-0.348,0-0.692-0.156-0.919-0.455c-0.385-0.507-0.287-1.231,0.22-1.617c1.202-0.918,2.366-1.889,3.459-2.893
			c0.471-0.431,1.2-0.397,1.63,0.072c0.43,0.471,0.399,1.202-0.071,1.632c-1.145,1.048-2.363,2.065-3.62,3.023
			C481.971,165.846,481.725,165.923,481.482,165.923z M488.269,159.687c-0.275,0-0.551-0.097-0.772-0.295
			c-0.473-0.428-0.512-1.157-0.086-1.632c1.011-1.123,1.963-2.295,2.829-3.488c0.373-0.516,1.097-0.629,1.611-0.255
			c0.516,0.374,0.63,1.098,0.255,1.612c-0.914,1.258-1.917,2.494-2.98,3.677C488.899,159.558,488.585,159.687,488.269,159.687z
			 M493.679,152.233c-0.194,0-0.39-0.05-0.57-0.151c-0.553-0.316-0.747-1.021-0.432-1.576c0.744-1.303,1.413-2.654,1.992-4.013
			c0.251-0.586,0.927-0.861,1.513-0.609c0.587,0.25,0.86,0.927,0.61,1.515c-0.613,1.441-1.323,2.87-2.109,4.252
			C494.47,152.023,494.08,152.233,493.679,152.233z M497.281,143.753c-0.106,0-0.214-0.014-0.321-0.045
			c-0.613-0.178-0.964-0.818-0.786-1.432c0.414-1.427,0.744-2.895,0.979-4.358c0.101-0.631,0.696-1.078,1.323-0.956
			c0.629,0.099,1.057,0.692,0.955,1.321c-0.25,1.558-0.601,3.118-1.042,4.638C498.242,143.426,497.781,143.753,497.281,143.753z
			 M498.744,134.667c-0.015,0-0.028,0-0.043,0c-0.637-0.025-1.135-0.559-1.111-1.197c0.016-0.451,0.025-0.902,0.025-1.353
			c0-1.042-0.044-2.081-0.132-3.123c-0.054-0.634,0.417-1.193,1.051-1.247c0.634-0.047,1.194,0.417,1.247,1.053
			c0.095,1.105,0.141,2.212,0.141,3.317c0,0.478-0.009,0.956-0.027,1.438C499.873,134.178,499.362,134.667,498.744,134.667z
			 M497.97,125.486c-0.536,0-1.016-0.377-1.129-0.922c-0.299-1.452-0.686-2.911-1.154-4.333c-0.198-0.606,0.131-1.258,0.737-1.456
			c0.61-0.205,1.257,0.133,1.456,0.735c0.495,1.508,0.906,3.053,1.221,4.59c0.128,0.625-0.274,1.236-0.898,1.364
			C498.126,125.48,498.047,125.486,497.97,125.486z M495.111,116.727c-0.439,0-0.86-0.253-1.052-0.679
			c-0.612-1.351-1.306-2.696-2.063-3.995c-0.32-0.552-0.134-1.258,0.416-1.578c0.557-0.325,1.257-0.135,1.579,0.415
			c0.797,1.369,1.527,2.784,2.171,4.207c0.263,0.579,0.006,1.265-0.576,1.526C495.431,116.694,495.27,116.727,495.111,116.727z
			 M436.275,109.01c-0.159,0-0.32-0.034-0.474-0.101c-1.886-0.854-3.188-2.095-3.87-3.684c-0.251-0.586,0.019-1.265,0.605-1.515
			c0.592-0.259,1.265,0.02,1.515,0.604c0.448,1.044,1.357,1.883,2.701,2.489c0.58,0.264,0.838,0.947,0.576,1.529
			C437.134,108.757,436.714,109.01,436.275,109.01z M490.48,108.755c-0.358,0-0.711-0.167-0.936-0.478
			c-0.871-1.208-1.813-2.399-2.8-3.54c-0.417-0.482-0.365-1.211,0.117-1.628c0.479-0.417,1.21-0.365,1.627,0.117
			c1.032,1.193,2.017,2.437,2.926,3.698c0.373,0.519,0.257,1.24-0.26,1.612C490.95,108.685,490.713,108.755,490.48,108.755z
			 M440.432,108.327c-0.291,0-0.583-0.11-0.807-0.329c-0.455-0.446-0.463-1.177-0.018-1.632c0.762-0.78,1.499-2.009,2.131-3.558
			c0.241-0.588,0.915-0.873,1.504-0.631c0.59,0.241,0.873,0.915,0.632,1.506c-0.755,1.847-1.635,3.294-2.617,4.297
			C441.031,108.212,440.732,108.327,440.432,108.327z M484.451,101.779c-0.291,0-0.58-0.108-0.805-0.327
			c-1.065-1.037-2.196-2.056-3.363-3.03c-0.489-0.408-0.555-1.136-0.148-1.626c0.408-0.487,1.135-0.557,1.626-0.147
			c1.212,1.01,2.388,2.07,3.494,3.147c0.457,0.446,0.466,1.177,0.023,1.632C485.051,101.662,484.75,101.779,484.451,101.779z
			 M432.989,101.419c-0.123,0-0.248-0.02-0.371-0.061c-0.603-0.205-0.926-0.861-0.722-1.463c0.492-1.454,1.339-2.911,2.514-4.333
			c0.403-0.494,1.131-0.564,1.624-0.156c0.491,0.408,0.561,1.134,0.154,1.626c-0.981,1.188-1.71,2.435-2.106,3.603
			C433.919,101.117,433.47,101.419,432.989,101.419z M444.139,99.982c-0.08,0-0.162-0.009-0.243-0.025
			c-0.623-0.135-1.02-0.749-0.886-1.371c0.303-1.416,0.519-2.902,0.642-4.419c0.052-0.636,0.628-1.109,1.244-1.057
			c0.634,0.052,1.108,0.609,1.057,1.242c-0.132,1.619-0.363,3.206-0.687,4.717C445.15,99.613,444.671,99.982,444.139,99.982z
			 M477.366,95.875c-0.231,0-0.464-0.07-0.667-0.214c-1.235-0.877-2.51-1.689-3.791-2.412c-0.554-0.313-0.75-1.019-0.436-1.574
			c0.313-0.557,1.02-0.751,1.572-0.437c1.35,0.764,2.693,1.619,3.992,2.543c0.519,0.368,0.641,1.089,0.273,1.608
			C478.082,95.705,477.727,95.875,477.366,95.875z M438.634,94.269c-0.347,0-0.69-0.156-0.917-0.453
			c-0.388-0.505-0.292-1.229,0.214-1.617c1.238-0.951,2.61-1.815,4.074-2.568c0.57-0.293,1.264-0.07,1.555,0.498
			c0.291,0.566,0.068,1.263-0.498,1.553c-1.344,0.692-2.598,1.481-3.727,2.347C439.125,94.193,438.879,94.269,438.634,94.269z
			 M469.34,91.359c-0.151,0-0.303-0.029-0.45-0.092c-1.384-0.584-2.801-1.082-4.214-1.479c-0.614-0.171-0.972-0.809-0.8-1.423
			c0.174-0.613,0.818-0.965,1.422-0.8c1.508,0.422,3.019,0.954,4.491,1.578c0.587,0.248,0.861,0.924,0.613,1.513
			C470.217,91.095,469.788,91.359,469.34,91.359z M444.902,90.802c-0.617,0-1.129-0.489-1.152-1.112
			c-0.056-1.499-0.202-2.999-0.433-4.457c-0.1-0.629,0.329-1.22,0.959-1.321c0.633-0.097,1.219,0.331,1.319,0.96
			c0.168,1.055,0.293,2.131,0.374,3.213c0.127-0.131,0.286-0.232,0.471-0.291c1.51-0.487,3.076-0.864,4.655-1.116
			c0.641-0.088,1.223,0.329,1.322,0.958c0.1,0.629-0.328,1.222-0.957,1.323c-1.464,0.232-2.914,0.579-4.312,1.03
			c-0.392,0.131-0.803,0.032-1.099-0.216c-0.061,0.559-0.525,1.006-1.104,1.028C444.931,90.802,444.917,90.802,444.902,90.802z
			 M460.475,88.89c-0.053,0-0.106-0.005-0.159-0.011c-1.384-0.192-2.791-0.289-4.181-0.289l-0.263,0.002
			c-0.638,0-1.154-0.516-1.154-1.154s0.516-1.154,1.154-1.154l0.232-0.002c0.003,0,0.006,0,0.009,0c1.523,0,3.033,0.106,4.518,0.311
			c0.632,0.088,1.073,0.67,0.985,1.301C461.536,88.473,461.042,88.89,460.475,88.89z M382.728,88.714
			c-1.932,0-3.47-0.789-4.447-2.279c-0.349-0.534-0.201-1.249,0.332-1.599c0.533-0.352,1.247-0.201,1.597,0.331
			c0.614,0.938,1.706,1.341,2.944,1.217c0.642-0.038,1.197,0.41,1.254,1.046c0.057,0.634-0.41,1.195-1.044,1.254
			C383.155,88.703,382.943,88.714,382.728,88.714z M387.069,86.385c-0.226,0-0.455-0.065-0.655-0.205
			c-0.524-0.363-0.656-1.08-0.293-1.605c0.655-0.947,1.126-2.27,1.363-3.824c0.096-0.631,0.676-1.062,1.315-0.967
			c0.63,0.097,1.063,0.685,0.966,1.314c-0.294,1.925-0.881,3.537-1.746,4.789C387.796,86.211,387.435,86.385,387.069,86.385z
			 M378.346,82.507c-0.024,0-0.048,0-0.073-0.002c-0.635-0.041-1.119-0.588-1.079-1.224c0.094-1.497,0.438-3.116,1.023-4.809
			c0.208-0.604,0.864-0.924,1.468-0.715c0.602,0.21,0.922,0.866,0.713,1.468c-0.518,1.497-0.821,2.911-0.901,4.2
			C379.458,82.036,378.95,82.507,378.346,82.507z M443.452,81.702c-0.5,0-0.961-0.327-1.108-0.832
			c-0.419-1.441-0.934-2.848-1.531-4.185c-0.26-0.582,0.001-1.265,0.583-1.524c0.586-0.266,1.265,0,1.524,0.582
			c0.64,1.434,1.192,2.94,1.639,4.482c0.178,0.613-0.174,1.254-0.785,1.432C443.667,81.689,443.558,81.702,443.452,81.702z
			 M388.749,77.473c-0.596,0-1.101-0.46-1.149-1.064c-0.112-1.409-0.354-2.879-0.72-4.369c-0.153-0.618,0.225-1.242,0.844-1.396
			c0.619-0.151,1.244,0.225,1.396,0.845c0.397,1.61,0.659,3.204,0.781,4.739c0.05,0.636-0.425,1.19-1.059,1.24
			C388.81,77.47,388.779,77.473,388.749,77.473z M381.221,73.804c-0.193,0-0.388-0.047-0.568-0.151
			c-0.554-0.313-0.749-1.017-0.435-1.571c0.777-1.373,1.679-2.708,2.682-3.973c0.395-0.501,1.122-0.586,1.62-0.187
			c0.499,0.397,0.584,1.123,0.187,1.621c-0.928,1.172-1.763,2.408-2.481,3.675C382.013,73.595,381.623,73.804,381.221,73.804z
			 M439.686,73.304c-0.381,0-0.754-0.189-0.975-0.534c-0.793-1.247-1.689-2.439-2.66-3.544c-0.42-0.478-0.374-1.208,0.105-1.628
			c0.475-0.424,1.204-0.374,1.628,0.104c1.049,1.193,2.017,2.482,2.874,3.828c0.341,0.537,0.184,1.251-0.354,1.594
			C440.113,73.245,439.898,73.304,439.686,73.304z M386.58,68.526c-0.456,0-0.889-0.273-1.07-0.724
			c-0.555-1.38-1.209-2.73-1.943-4.013c-0.317-0.552-0.124-1.258,0.428-1.574c0.554-0.316,1.259-0.129,1.575,0.428
			c0.309,0.539,0.604,1.091,0.886,1.65c1.072-0.978,2.213-1.889,3.396-2.712c0.523-0.358,1.242-0.232,1.606,0.291
			c0.364,0.523,0.233,1.242-0.29,1.608c-1.21,0.839-2.372,1.779-3.452,2.793c-0.081,0.077-0.169,0.138-0.263,0.187
			c0.066,0.158,0.133,0.32,0.197,0.48c0.238,0.591-0.048,1.263-0.64,1.502C386.869,68.499,386.724,68.526,386.58,68.526z
			 M433.617,66.405c-0.26,0-0.523-0.088-0.738-0.268c-1.115-0.931-2.33-1.801-3.61-2.584c-0.544-0.334-0.715-1.044-0.382-1.587
			c0.334-0.546,1.046-0.717,1.585-0.383c1.377,0.843,2.684,1.779,3.885,2.782c0.489,0.408,0.555,1.136,0.146,1.626
			C434.276,66.263,433.948,66.405,433.617,66.405z M330.423,62.543c-0.021,0-0.043-0.002-0.064-0.002
			c-0.632-0.034-1.119-0.568-1.09-1.199c0.005-0.092,0.124-2.279,1.972-4.847c0.372-0.519,1.092-0.638,1.61-0.264
			c0.517,0.374,0.634,1.096,0.263,1.612c-1.421,1.975-1.539,3.598-1.54,3.614C331.535,62.067,331.027,62.543,330.423,62.543z
			 M425.781,61.591c-0.155,0-0.313-0.032-0.464-0.099c-1.321-0.582-2.732-1.107-4.195-1.558c-0.61-0.187-0.951-0.832-0.764-1.443
			c0.188-0.611,0.834-0.958,1.442-0.762c1.549,0.476,3.046,1.033,4.447,1.653c0.584,0.257,0.847,0.938,0.59,1.522
			C426.648,61.334,426.225,61.591,425.781,61.591z M394.482,61.341c-0.426,0-0.835-0.237-1.035-0.643
			c-0.283-0.573-0.047-1.265,0.524-1.547c1.43-0.706,2.921-1.31,4.429-1.795c0.61-0.187,1.259,0.14,1.451,0.749
			c0.195,0.606-0.14,1.256-0.746,1.452c-1.402,0.449-2.785,1.008-4.114,1.664C394.826,61.303,394.653,61.341,394.482,61.341z
			 M382,60.541c-0.343,0-0.682-0.151-0.909-0.442c-0.93-1.186-1.936-2.284-2.993-3.267c-0.466-0.435-0.493-1.166-0.06-1.632
			c0.437-0.464,1.166-0.492,1.63-0.059c1.145,1.064,2.234,2.252,3.238,3.533c0.393,0.501,0.305,1.227-0.196,1.621
			C382.5,60.459,382.249,60.541,382,60.541z M416.993,58.856c-0.074,0-0.151-0.007-0.228-0.023c-1.499-0.3-2.993-0.516-4.44-0.645
			c-0.635-0.056-1.104-0.616-1.048-1.251c0.056-0.634,0.629-1.075,1.251-1.048c1.532,0.135,3.11,0.365,4.691,0.681
			c0.624,0.124,1.03,0.733,0.905,1.357C418.014,58.478,417.531,58.856,416.993,58.856z M403.229,58.518
			c-0.553,0-1.041-0.399-1.137-0.963c-0.106-0.629,0.318-1.224,0.945-1.33c1.555-0.262,3.15-0.422,4.742-0.471
			c0.605-0.023,1.17,0.48,1.189,1.118c0.02,0.638-0.48,1.17-1.117,1.19c-1.487,0.045-2.978,0.194-4.429,0.44
			C403.357,58.514,403.292,58.518,403.229,58.518z M335.465,55.118c-0.361,0-0.715-0.169-0.941-0.485
			c-0.37-0.519-0.249-1.24,0.27-1.61c1.242-0.884,2.675-1.668,4.261-2.331c0.587-0.237,1.263,0.034,1.509,0.622
			c0.246,0.588-0.033,1.265-0.621,1.511c-1.428,0.595-2.71,1.294-3.811,2.079C335.931,55.048,335.696,55.118,335.465,55.118z
			 M375.251,54.3c-0.215,0-0.434-0.061-0.628-0.187c-1.232-0.8-2.54-1.493-3.887-2.052c-0.588-0.246-0.868-0.92-0.623-1.508
			c0.245-0.591,0.918-0.873,1.509-0.625c1.477,0.616,2.91,1.371,4.259,2.25c0.534,0.347,0.686,1.062,0.338,1.596
			C375.998,54.115,375.628,54.3,375.251,54.3z M343.875,51.484c-0.517,0-0.988-0.349-1.119-0.875c-0.153-0.62,0.223-1.245,0.841-1.4
			c1.439-0.358,3.002-0.656,4.647-0.884c0.625-0.086,1.214,0.352,1.301,0.985c0.088,0.631-0.353,1.213-0.984,1.301
			c-1.565,0.216-3.047,0.501-4.406,0.839C344.061,51.473,343.968,51.484,343.875,51.484z M366.783,50.78
			c-0.08,0-0.161-0.009-0.243-0.025c-1.248-0.268-2.553-0.444-3.879-0.523l-0.508-0.027c-0.637-0.034-1.124-0.577-1.092-1.213
			c0.034-0.636,0.589-1.179,1.214-1.091l0.514,0.027c1.451,0.086,2.874,0.277,4.237,0.568c0.623,0.135,1.02,0.749,0.886,1.371
			C367.794,50.411,367.315,50.78,366.783,50.78z M352.991,50.185c-0.607,0-1.115-0.473-1.15-1.089
			c-0.037-0.636,0.448-1.181,1.085-1.217c1.351-0.079,2.78-0.119,4.294-0.119h0.382c0.638,0,1.154,0.516,1.154,1.154
			c0,0.638-0.516,1.154-1.154,1.154h-0.382c-1.467,0-2.853,0.041-4.161,0.115C353.036,50.185,353.013,50.185,352.991,50.185z"/>
		<path style="fill:#261D2A;" d="M127.892,508.665c-0.631,0-1.146-0.507-1.154-1.141c-0.008-0.636,0.503-1.159,1.139-1.168
			l0.55-0.007c1.366-0.018,2.699-0.072,3.999-0.16c0.63-0.065,1.185,0.437,1.228,1.075c0.042,0.636-0.439,1.186-1.075,1.229
			c-1.341,0.088-2.714,0.147-4.123,0.165l-0.55,0.007C127.901,508.665,127.897,508.665,127.892,508.665z M123.287,508.496
			c-0.032,0-0.064-0.002-0.096-0.005c-1.61-0.133-3.189-0.347-4.691-0.636c-0.625-0.122-1.034-0.726-0.915-1.353
			c0.122-0.625,0.727-1.03,1.352-0.915c1.421,0.275,2.916,0.478,4.443,0.604c0.635,0.052,1.108,0.609,1.056,1.245
			C124.386,508.04,123.881,508.496,123.287,508.496z M137.091,508.051c-0.572,0-1.069-0.426-1.144-1.008
			c-0.08-0.634,0.366-1.211,0.998-1.292c1.512-0.194,3.017-0.437,4.475-0.726c0.62-0.131,1.233,0.284,1.355,0.906
			c0.124,0.627-0.282,1.233-0.907,1.357c-1.509,0.3-3.067,0.552-4.631,0.753C137.189,508.049,137.139,508.051,137.091,508.051z
			 M114.26,506.71c-0.121,0-0.245-0.018-0.365-0.059c-1.549-0.519-3.033-1.143-4.411-1.86c-0.566-0.293-0.785-0.99-0.492-1.556
			c0.292-0.566,0.988-0.794,1.556-0.491c1.271,0.658,2.643,1.238,4.078,1.716c0.605,0.203,0.931,0.857,0.729,1.461
			C115.193,506.406,114.743,506.71,114.26,506.71z M146.133,506.255c-0.506,0-0.971-0.336-1.111-0.848
			c-0.169-0.615,0.193-1.251,0.807-1.42c1.461-0.401,2.909-0.861,4.303-1.371c0.596-0.219,1.262,0.09,1.479,0.69
			c0.219,0.597-0.09,1.26-0.688,1.479c-1.453,0.53-2.961,1.01-4.483,1.429C146.337,506.241,146.234,506.255,146.133,506.255z
			 M208.098,503.659c-1.073,0-2.201-0.052-3.385-0.158c-0.634-0.056-1.103-0.618-1.046-1.254c0.057-0.636,0.632-1.078,1.253-1.046
			c1.594,0.144,3.075,0.178,4.457,0.122c0.651,0.016,1.175,0.469,1.201,1.107c0.027,0.636-0.468,1.175-1.104,1.202
			C209.026,503.65,208.568,503.659,208.098,503.659z M154.788,503.091c-0.435,0-0.851-0.246-1.047-0.665
			c-0.269-0.577-0.02-1.265,0.557-1.535c1.381-0.645,2.722-1.35,3.985-2.095c0.55-0.322,1.254-0.142,1.58,0.408
			c0.323,0.55,0.141,1.258-0.408,1.58c-1.326,0.782-2.732,1.522-4.179,2.198C155.117,503.057,154.952,503.091,154.788,503.091z
			 M213.992,503.055c-0.528,0-1.006-0.365-1.126-0.904c-0.137-0.622,0.255-1.238,0.877-1.378c1.472-0.327,2.855-0.794,4.111-1.389
			c0.579-0.271,1.265-0.027,1.537,0.55s0.026,1.265-0.55,1.538c-1.412,0.667-2.959,1.19-4.598,1.556
			C214.158,503.046,214.075,503.055,213.992,503.055z M200.252,502.848c-0.072,0-0.145-0.007-0.22-0.02
			c-0.55-0.106-1.111-0.223-1.682-0.354c-0.987-0.221-1.958-0.476-2.911-0.76c-0.611-0.183-0.958-0.827-0.775-1.436
			c0.181-0.613,0.818-0.954,1.435-0.778c0.904,0.271,1.823,0.512,2.759,0.721c0.548,0.124,1.084,0.237,1.611,0.338
			c0.625,0.122,1.034,0.726,0.915,1.353C201.278,502.465,200.794,502.848,200.252,502.848z M106.128,502.453
			c-0.246,0-0.492-0.079-0.703-0.239c-1.274-0.983-2.461-2.088-3.528-3.287c-0.424-0.476-0.381-1.204,0.095-1.628
			c0.474-0.426,1.203-0.383,1.629,0.095c0.971,1.091,2.052,2.097,3.212,2.99c0.505,0.39,0.598,1.114,0.21,1.619
			C106.816,502.298,106.474,502.453,106.128,502.453z M75.685,502.415c-0.008,0-0.017,0-0.026,0l-0.277-0.004
			c-1.531-0.034-2.989-0.117-4.403-0.243c-0.634-0.056-1.103-0.618-1.047-1.251c0.057-0.636,0.622-1.091,1.252-1.048
			c1.364,0.122,2.773,0.201,4.224,0.234l0.303,0.005c0.637,0.014,1.141,0.543,1.128,1.181
			C76.824,501.914,76.31,502.415,75.685,502.415z M80.295,502.345c-0.611,0-1.12-0.478-1.152-1.096
			c-0.032-0.636,0.457-1.179,1.094-1.211c1.552-0.079,3.066-0.214,4.501-0.404c0.629-0.086,1.211,0.363,1.293,0.997
			c0.083,0.631-0.362,1.211-0.994,1.294c-1.495,0.196-3.071,0.336-4.684,0.417C80.335,502.345,80.315,502.345,80.295,502.345z
			 M66.511,501.581c-0.064,0-0.131-0.005-0.196-0.016c-1.58-0.273-3.129-0.609-4.606-1.001c-0.616-0.165-0.983-0.796-0.819-1.414
			c0.165-0.616,0.798-0.985,1.412-0.818c1.411,0.377,2.892,0.697,4.403,0.956c0.629,0.108,1.05,0.706,0.942,1.335
			C67.551,501.184,67.063,501.581,66.511,501.581z M89.425,501.125c-0.526,0-1.002-0.363-1.123-0.897
			c-0.142-0.622,0.246-1.24,0.868-1.382c1.488-0.34,2.936-0.758,4.303-1.24c0.598-0.212,1.259,0.104,1.472,0.706
			c0.212,0.6-0.104,1.26-0.705,1.472c-1.448,0.512-2.981,0.951-4.555,1.312C89.596,501.116,89.511,501.125,89.425,501.125z
			 M191.42,500.223c-0.146,0-0.295-0.027-0.438-0.086c-1.447-0.595-2.887-1.274-4.277-2.016c-0.563-0.3-0.776-0.999-0.477-1.562
			c0.301-0.561,0.999-0.778,1.561-0.476c1.325,0.706,2.694,1.35,4.07,1.916c0.59,0.243,0.871,0.918,0.629,1.508
			C192.303,499.955,191.873,500.223,191.42,500.223z M57.613,499.204c-0.134,0-0.272-0.023-0.404-0.072
			c-1.494-0.561-2.954-1.199-4.339-1.898c-0.569-0.286-0.798-0.981-0.51-1.551c0.286-0.566,0.984-0.791,1.549-0.51
			c1.312,0.661,2.694,1.265,4.109,1.795c0.597,0.225,0.899,0.891,0.676,1.486C58.52,498.918,58.08,499.204,57.613,499.204z
			 M222.219,499.105c-0.327,0-0.652-0.138-0.88-0.408c-0.412-0.487-0.353-1.215,0.134-1.628c1.086-0.92,2.06-1.993,2.892-3.188
			c0.364-0.525,1.081-0.652,1.607-0.286c0.523,0.365,0.65,1.084,0.286,1.608c-0.948,1.357-2.055,2.579-3.293,3.63
			C222.749,499.015,222.483,499.105,222.219,499.105z M162.723,498.411c-0.355,0-0.704-0.162-0.931-0.471
			c-0.377-0.512-0.267-1.236,0.246-1.612c1.216-0.897,2.382-1.856,3.465-2.852c0.47-0.428,1.2-0.399,1.63,0.068
			c0.432,0.471,0.4,1.199-0.069,1.632c-1.144,1.053-2.375,2.065-3.659,3.01C163.199,498.339,162.961,498.411,162.723,498.411z
			 M98.095,498.036c-0.42,0-0.826-0.23-1.029-0.631c-0.29-0.568-0.064-1.263,0.504-1.551c0.501-0.257,0.994-0.525,1.475-0.805
			c-0.001-0.002-0.001-0.002-0.002-0.005c-0.81-1.344-1.522-2.796-2.116-4.313c-0.232-0.595,0.061-1.265,0.655-1.497
			c0.589-0.232,1.262,0.061,1.495,0.654c0.539,1.38,1.183,2.699,1.915,3.921c0.122-0.086,0.243-0.171,0.363-0.257
			c0.518-0.377,1.239-0.255,1.611,0.262c0.372,0.516,0.255,1.238-0.261,1.61c-1.268,0.915-2.642,1.752-4.087,2.487
			C98.45,497.996,98.271,498.036,98.095,498.036z M183.28,495.897c-0.219,0-0.439-0.061-0.635-0.192
			c-1.303-0.861-2.586-1.797-3.813-2.78c-0.498-0.399-0.578-1.125-0.179-1.623c0.4-0.494,1.124-0.575,1.621-0.18
			c1.173,0.94,2.399,1.835,3.644,2.658c0.531,0.352,0.677,1.066,0.326,1.599C184.022,495.714,183.654,495.897,183.28,495.897z
			 M49.396,495.056c-0.217,0-0.437-0.061-0.633-0.189c-1.326-0.873-2.606-1.828-3.804-2.841c-0.488-0.41-0.549-1.139-0.139-1.626
			c0.411-0.487,1.136-0.55,1.626-0.138c1.128,0.951,2.335,1.851,3.585,2.674c0.532,0.352,0.679,1.066,0.33,1.599
			C50.139,494.873,49.771,495.056,49.396,495.056z M105.527,492.646c-0.292,0-0.584-0.11-0.808-0.331
			c-0.455-0.446-0.462-1.177-0.016-1.632c1.032-1.051,1.971-2.196,2.79-3.402c0.357-0.528,1.077-0.663,1.602-0.309
			c0.527,0.358,0.665,1.075,0.306,1.603c-0.896,1.323-1.923,2.577-3.051,3.727C106.125,492.531,105.826,492.646,105.527,492.646z
			 M169.489,492.159c-0.266,0-0.533-0.09-0.75-0.277c-0.484-0.415-0.541-1.143-0.126-1.628c0.981-1.148,1.883-2.347,2.678-3.569
			c0.157-0.239,0.386-0.401,0.64-0.476c-0.285-0.473-0.196-1.098,0.238-1.47c0.483-0.413,1.211-0.358,1.627,0.122
			c0.964,1.125,2.006,2.228,3.094,3.28c0.459,0.442,0.472,1.172,0.029,1.632c-0.443,0.46-1.173,0.471-1.632,0.027
			c-0.678-0.654-1.339-1.328-1.975-2.016c-0.025,0.056-0.054,0.11-0.088,0.162c-0.851,1.303-1.812,2.586-2.859,3.808
			C170.137,492.021,169.813,492.159,169.489,492.159z M227.478,491.624c-0.141,0-0.283-0.025-0.421-0.079
			c-0.594-0.234-0.886-0.904-0.652-1.497c0.917-2.338,1.1-4.139,1.102-4.158c0.061-0.634,0.628-1.118,1.257-1.039
			c0.633,0.059,1.099,0.62,1.04,1.254c-0.008,0.086-0.206,2.124-1.252,4.786C228.373,491.347,227.939,491.624,227.478,491.624z
			 M42.369,489.108c-0.31,0-0.62-0.124-0.846-0.37c-1.074-1.161-2.087-2.399-3.011-3.682c-0.372-0.516-0.256-1.238,0.261-1.61
			c0.519-0.377,1.238-0.255,1.611,0.262c0.869,1.206,1.822,2.37,2.83,3.461c0.434,0.469,0.406,1.199-0.062,1.632
			C42.931,489.007,42.65,489.108,42.369,489.108z M96.658,487.045c-0.528,0-1.004-0.365-1.124-0.902
			c-0.343-1.524-0.585-3.111-0.721-4.719c-0.054-0.634,0.417-1.193,1.051-1.247c0.63-0.041,1.193,0.417,1.247,1.053
			c0.128,1.502,0.355,2.985,0.674,4.408c0.14,0.622-0.251,1.24-0.873,1.38C96.827,487.036,96.741,487.045,96.658,487.045z
			 M110.68,485.05c-0.154,0-0.313-0.032-0.464-0.097c-0.583-0.257-0.847-0.94-0.59-1.522c0.589-1.339,1.063-2.744,1.408-4.176
			c0.15-0.622,0.777-0.99,1.392-0.852c0.62,0.151,1.001,0.773,0.851,1.393c-0.376,1.565-0.895,3.1-1.539,4.563
			C111.546,484.793,111.124,485.05,110.68,485.05z M174.489,484.435c-0.16,0-0.322-0.034-0.478-0.104
			c-0.58-0.266-0.835-0.949-0.57-1.531c0.634-1.391,1.133-2.787,1.482-4.151c0.158-0.616,0.781-0.994,1.404-0.832
			c0.617,0.158,0.989,0.787,0.832,1.405c-0.382,1.495-0.926,3.021-1.619,4.539C175.347,484.184,174.928,484.435,174.489,484.435z
			 M170.096,483.116c-0.366,0-0.726-0.174-0.95-0.498c-0.941-1.357-1.771-2.728-2.469-4.072c-0.293-0.566-0.073-1.263,0.492-1.556
			c0.567-0.3,1.261-0.077,1.556,0.492c0.652,1.258,1.432,2.543,2.318,3.824c0.363,0.523,0.232,1.242-0.292,1.605
			C170.551,483.048,170.323,483.116,170.096,483.116z M36.982,481.641c-0.407,0-0.801-0.216-1.012-0.597
			c-0.761-1.38-1.447-2.823-2.042-4.29c-0.239-0.591,0.045-1.263,0.635-1.504c0.587-0.237,1.264,0.045,1.503,0.638
			c0.56,1.382,1.208,2.742,1.924,4.043c0.308,0.557,0.105,1.26-0.453,1.567C37.362,481.596,37.17,481.641,36.982,481.641z
			 M95.862,477.869c-0.016,0-0.032,0-0.047,0c-0.637-0.027-1.132-0.564-1.106-1.199c0.063-1.587,0.225-3.179,0.481-4.732
			c0.101-0.629,0.687-1.066,1.325-0.951c0.629,0.104,1.055,0.697,0.951,1.326c-0.24,1.461-0.392,2.958-0.452,4.448
			C96.989,477.382,96.477,477.869,95.862,477.869z M112.84,476.117c-0.024,0-0.048,0-0.072-0.002
			c-0.637-0.038-1.12-0.586-1.081-1.224c0.032-0.505,0.046-1.008,0.046-1.506c-0.001-0.978-0.06-1.95-0.174-2.89
			c-0.078-0.634,0.373-1.208,1.005-1.285c0.647-0.088,1.208,0.372,1.284,1.006c0.126,1.03,0.19,2.097,0.192,3.168
			c0,0.546-0.017,1.098-0.051,1.653C113.953,475.646,113.445,476.117,112.84,476.117z M165.937,474.904
			c-0.498,0-0.958-0.325-1.106-0.825c-0.415-1.4-0.625-2.692-0.625-3.837c0-0.426,0.029-0.834,0.086-1.213
			c0.094-0.629,0.681-1.066,1.31-0.972c0.631,0.092,1.066,0.679,0.972,1.31c-0.041,0.275-0.061,0.566-0.061,0.875
			c0,0.924,0.178,1.993,0.531,3.179c0.181,0.611-0.167,1.254-0.779,1.436C166.156,474.889,166.046,474.904,165.937,474.904z
			 M176.661,474.372h-1.154c-0.001-1.594-0.246-2.935-0.727-4.056c-0.251-0.584,0.019-1.265,0.604-1.515
			c0.585-0.257,1.264,0.018,1.517,0.604c0.605,1.407,0.913,3.057,0.914,4.901L176.661,474.372z M33.529,473.101
			c-0.508,0-0.975-0.338-1.113-0.854c-0.418-1.553-0.737-3.125-0.945-4.669c-0.086-0.634,0.357-1.215,0.989-1.299
			c0.625-0.117,1.211,0.356,1.298,0.988c0.195,1.447,0.494,2.922,0.887,4.381c0.166,0.615-0.199,1.249-0.815,1.414
			C33.729,473.087,33.629,473.101,33.529,473.101z M97.381,468.783c-0.114,0-0.229-0.016-0.343-0.052
			c-0.608-0.189-0.949-0.836-0.759-1.445c0.513-1.648,1.128-3.152,1.829-4.469c0.3-0.561,0.998-0.778,1.561-0.476
			c0.563,0.3,0.776,0.999,0.477,1.562c-0.633,1.188-1.192,2.557-1.662,4.067C98.329,468.465,97.873,468.783,97.381,468.783z
			 M172.784,467.694c-0.165,0-0.331-0.036-0.491-0.11c-0.341-0.16-0.706-0.284-1.084-0.367c-1.053-0.232-1.974-0.273-2.686-0.12
			c-0.623,0.135-1.238-0.257-1.372-0.882c-0.136-0.622,0.258-1.238,0.881-1.373c1.042-0.23,2.291-0.187,3.674,0.119
			c0.542,0.12,1.073,0.3,1.572,0.534c0.576,0.271,0.823,0.958,0.551,1.535C173.632,467.451,173.216,467.694,172.784,467.694z
			 M111.687,467.011c-0.478,0-0.925-0.3-1.091-0.778c-0.505-1.459-1.152-2.739-1.921-3.804c-0.374-0.516-0.259-1.238,0.257-1.612
			c0.518-0.37,1.237-0.262,1.611,0.259c0.904,1.247,1.655,2.728,2.234,4.403c0.208,0.602-0.112,1.258-0.713,1.468
			C111.94,466.991,111.812,467.011,111.687,467.011z M32.325,463.97c-0.006,0-0.011,0-0.017,0c-0.637-0.009-1.146-0.534-1.137-1.17
			c0.025-1.725,0.202-3.344,0.526-4.816c0.137-0.622,0.743-1.015,1.376-0.879c0.622,0.138,1.015,0.753,0.878,1.375
			c-0.291,1.321-0.45,2.784-0.472,4.351C33.47,463.464,32.955,463.97,32.325,463.97z M101.9,460.858c-0.329,0-0.655-0.14-0.882-0.41
			c-0.411-0.487-0.35-1.215,0.136-1.626c1.749-1.481,3.677-1.867,5.452-1.116c0.587,0.25,0.861,0.927,0.613,1.513
			c-0.248,0.588-0.925,0.857-1.512,0.616c-0.978-0.417-1.991-0.158-3.064,0.751C102.428,460.768,102.163,460.858,101.9,460.858z
			 M34.512,455.116c-0.22,0-0.442-0.063-0.638-0.194c-0.531-0.352-0.675-1.069-0.322-1.601c0.519-0.78,1.114-1.42,1.77-1.907
			c0.512-0.377,1.235-0.268,1.613,0.241c0.38,0.514,0.272,1.236-0.241,1.617c-0.439,0.325-0.851,0.771-1.22,1.33
			C35.252,454.935,34.885,455.116,34.512,455.116z"/>
		<g>
			<path style="fill:#CA7A8C;" d="M31.439,216.232c0,0,36.804,12.488,36.507,17.025c-0.487,7.438-10.683,30.059-11.421,38.938
				c-0.738,8.879,26.142,28.418,16.208,34.711s-60.83-7.935-63.955-25.42S23.496,213.927,31.439,216.232z"/>
			<path style="fill:#76AEA6;" d="M21.895,227.107c0,0,41.872,21.073,42.813,18.245s7.444-12.747,3.946-15.372
				s-35.885-20.48-39.565-18.021C25.249,214.523,20.169,222.652,21.895,227.107z"/>
			<path style="fill:#76AEA6;" d="M63.186,284.47c0,0-10.057,14.707-13.06,22.038c-0.243,0.594,20.8,6.407,23.894-0.004
				C75.6,303.235,76.599,297.267,63.186,284.47z"/>
			<path style="fill:#76AEA6;" d="M10.409,263.642c0,0,15.69,3.166,20.084,11.685c4.395,8.519,0.673,24.402-2.026,23.875
				c-2.699-0.528-17.414-4.257-19.596-11.354C7.659,283.901,9.061,263.263,10.409,263.642z"/>
			<path style="fill:#261D2A;" d="M28.351,229.746c-0.131,0-0.263-0.023-0.392-0.068c-0.599-0.219-0.909-0.879-0.693-1.479
				l4.76-13.187c0.216-0.6,0.881-0.904,1.477-0.694c0.599,0.219,0.909,0.879,0.693,1.479l-4.76,13.187
				C29.266,229.453,28.824,229.746,28.351,229.746z"/>
			<path style="fill:#261D2A;" d="M37.115,232.517c-0.15,0-0.302-0.029-0.447-0.09c-0.588-0.248-0.863-0.924-0.616-1.513
				l5.644-13.41c0.248-0.586,0.93-0.861,1.511-0.616c0.588,0.248,0.863,0.924,0.616,1.513l-5.644,13.41
				C37.993,232.251,37.565,232.517,37.115,232.517z"/>
			<path style="fill:#261D2A;" d="M47.166,239.028c-0.166,0-0.335-0.036-0.496-0.113c-0.575-0.275-0.819-0.963-0.544-1.538
				l6.676-14.008c0.274-0.575,0.957-0.821,1.538-0.546c0.575,0.275,0.819,0.963,0.544,1.538l-6.676,14.008
				C48.011,238.785,47.597,239.028,47.166,239.028z"/>
			<path style="fill:#261D2A;" d="M58.76,243.213c-0.133,0-0.268-0.023-0.401-0.072c-0.597-0.221-0.903-0.886-0.681-1.484
				l5.349-14.452c0.222-0.595,0.88-0.902,1.483-0.681c0.597,0.221,0.903,0.886,0.681,1.484l-5.349,14.452
				C59.669,242.924,59.229,243.213,58.76,243.213z"/>
			<path style="fill:#261D2A;" d="M54.382,307.158c-0.197,0-0.398-0.05-0.58-0.158c-0.55-0.32-0.736-1.028-0.416-1.578
				l10.101-17.333c0.323-0.55,1.031-0.74,1.579-0.415c0.55,0.32,0.736,1.028,0.416,1.578l-10.101,17.333
				C55.166,306.952,54.779,307.158,54.382,307.158z"/>
			<path style="fill:#261D2A;" d="M24.296,295.973c-0.634,0-1.149-0.512-1.154-1.148c-0.001-0.214-0.273-21.558-11.572-24.819
				c-0.612-0.176-0.966-0.816-0.789-1.429c0.177-0.611,0.816-0.972,1.429-0.789c12.952,3.738,13.234,26.074,13.239,27.024
				c0.003,0.638-0.509,1.157-1.147,1.161C24.301,295.973,24.299,295.973,24.296,295.973z"/>
			<path style="fill:#76AEA6;" d="M16.818,239.051c0,0,16.909,4.631,43.62,18.583c0.669,0.349-3.913,14.561-3.913,14.561
				S13.95,254.36,12.349,253.034C10.748,251.708,16.818,239.051,16.818,239.051z"/>
			<path style="fill:#261D2A;" d="M52.019,265.197c-1.57,0-3.198-0.473-4.701-1.738c-2.548-2.144-3.155-3.81-3.643-5.152
				c-0.424-1.163-0.704-1.932-2.26-2.924c-1.664-1.064-2.841-0.478-4.948,0.744c-1.334,0.773-2.846,1.65-4.695,1.849
				c-3.556,0.377-4.629-1.454-6.11-4c-0.644-1.105-1.446-2.482-2.642-4.056c-1.014-1.335-2.105-2.056-3.243-2.142
				c-1.696-0.104-3.144,1.224-3.157,1.24c-0.455,0.442-1.184,0.437-1.629-0.016c-0.445-0.453-0.443-1.179,0.007-1.626
				c0.087-0.083,2.181-2.083,4.924-1.903c1.835,0.129,3.496,1.154,4.935,3.048c1.282,1.689,2.123,3.132,2.799,4.291
				c1.485,2.552,1.867,3.075,3.869,2.868c1.363-0.147,2.596-0.861,3.787-1.551c2.073-1.202,4.418-2.557,7.345-0.694
				c2.215,1.414,2.709,2.771,3.186,4.081c0.435,1.195,0.884,2.43,2.96,4.176c3.719,3.136,8.319-0.791,8.511-0.963
				c0.478-0.417,1.208-0.367,1.627,0.11c0.419,0.48,0.372,1.208-0.106,1.628C57.456,263.678,54.831,265.197,52.019,265.197z"/>
		</g>
		<g>
			<path style="fill:#CA7A8C;" d="M464.761,421.464c0,0-34.688-17.531-37.717-14.141c-4.965,5.558-13.958,28.684-19.775,35.431
				s-38.583,1.24-36.114,12.742c2.469,11.501,48.271,37.876,62.932,27.859C448.748,473.337,471.969,425.521,464.761,421.464z"/>
			<path style="fill:#76AEA6;" d="M463.689,435.897c0,0-44.362-15.136-43.004-17.789c1.358-2.653,3.878-14.244,8.201-13.585
				c4.323,0.659,39.745,11.277,40.569,15.626C470.315,424.687,468.075,434.008,463.689,435.897z"/>
			<path style="fill:#76AEA6;" d="M393.847,446.596c0,0-3.446,17.483-6.572,24.762c-0.253,0.59-19.14-10.364-16.735-17.064
				C371.767,450.877,375.323,445.983,393.847,446.596z"/>
			<path style="fill:#76AEA6;" d="M445.673,469.69c0,0-13.249-8.985-22.404-6.156s-17.878,16.613-15.611,18.17
				c2.267,1.557,15.234,9.452,21.826,6.038C433.149,485.845,446.888,470.388,445.673,469.69z"/>
			<path style="fill:#261D2A;" d="M458.106,433.481c-0.168,0-0.338-0.036-0.499-0.115c-0.574-0.275-0.816-0.965-0.54-1.54
				l6.072-12.635c0.276-0.573,0.967-0.821,1.54-0.539c0.574,0.275,0.816,0.965,0.54,1.54l-6.072,12.635
				C458.949,433.239,458.537,433.481,458.106,433.481z"/>
			<path style="fill:#261D2A;" d="M449.992,429.165c-0.149,0-0.3-0.029-0.445-0.09c-0.588-0.246-0.865-0.922-0.62-1.511
				l5.612-13.426c0.247-0.588,0.922-0.863,1.51-0.618c0.588,0.246,0.865,0.922,0.62,1.511l-5.612,13.426
				C450.87,428.899,450.442,429.165,449.992,429.165z"/>
			<path style="fill:#261D2A;" d="M438.306,426.548c-0.132,0-0.265-0.023-0.396-0.07c-0.598-0.219-0.907-0.882-0.688-1.479
				l5.316-14.578c0.219-0.6,0.879-0.906,1.479-0.69c0.598,0.219,0.907,0.882,0.688,1.479l-5.316,14.578
				C439.219,426.257,438.777,426.548,438.306,426.548z"/>
			<path style="fill:#261D2A;" d="M427.199,421.202c-0.165,0-0.331-0.036-0.49-0.11c-0.577-0.271-0.824-0.958-0.552-1.535
				l6.563-13.945c0.269-0.577,0.958-0.823,1.535-0.552c0.577,0.271,0.824,0.958,0.552,1.535l-6.563,13.945
				C428.047,420.956,427.633,421.202,427.199,421.202z"/>
			<path style="fill:#261D2A;" d="M384.654,469.119c-0.101,0-0.204-0.014-0.305-0.041c-0.615-0.169-0.977-0.803-0.809-1.418
				l5.289-19.353c0.169-0.616,0.811-0.969,1.417-0.809c0.615,0.169,0.977,0.803,0.809,1.418l-5.289,19.353
				C385.626,468.783,385.161,469.119,384.654,469.119z"/>
			<path style="fill:#261D2A;" d="M413.707,482.768c-0.301,0-0.602-0.117-0.828-0.352c-0.444-0.458-0.433-1.188,0.025-1.632
				c0.682-0.661,16.811-16.102,28.55-9.478c0.555,0.313,0.752,1.017,0.438,1.574c-0.313,0.552-1.016,0.753-1.572,0.437
				c-10.244-5.781-25.656,8.976-25.81,9.127C414.286,482.66,413.997,482.768,413.707,482.768z"/>
			<path style="fill:#76AEA6;" d="M458.725,447.888c0,0-15.148-8.83-43.81-18.128c-0.718-0.233-7.646,12.994-7.646,12.994
				s42.545,17.906,44.613,18.121S458.725,447.888,458.725,447.888z"/>
			<path style="fill:#261D2A;" d="M452.909,456.166c-0.002,0-0.004,0-0.007,0c-0.635-0.004-1.148-0.521-1.147-1.157
				c-0.001-0.065-0.041-1.991-1.328-3.12c-0.859-0.753-2.136-1.033-3.798-0.816c-1.962,0.248-3.504,0.64-4.744,0.956
				c-2.855,0.721-4.914,1.249-7.133-1.56c-1.154-1.461-1.589-3.154-1.972-4.649c-0.604-2.358-1.01-3.61-2.933-4.054
				c-1.802-0.422-2.545-0.079-3.671,0.435c-1.298,0.588-2.916,1.321-6.226,1.008c-5.457-0.523-7.199-6.063-7.358-8.921
				c-0.036-0.634,0.45-1.177,1.085-1.215c0.643,0.004,1.182,0.451,1.218,1.084c0.016,0.257,0.434,6.29,5.275,6.753
				c2.708,0.275,3.896-0.282,5.051-0.809c1.271-0.577,2.587-1.17,5.144-0.584c3.381,0.78,4.055,3.411,4.65,5.729
				c0.343,1.335,0.696,2.715,1.546,3.79c1.247,1.58,1.897,1.479,4.756,0.755c1.3-0.329,2.919-0.74,5.021-1.008
				c2.359-0.295,4.253,0.167,5.633,1.389c2.086,1.851,2.093,4.726,2.092,4.847C454.059,455.655,453.543,456.166,452.909,456.166z"/>
		</g>
		<g>
			<g>
				<path style="fill:#CA7A8C;" d="M457.127,203.951c-23.704-30.881-61.034-42.513-99.868-31.122
					c-0.441,0.13-0.846,0.319-1.229,0.537c-22.095-43.82-67.452-73.892-119.857-73.892c-74.116,0-134.199,60.113-134.199,134.265
					s60.083,134.265,134.199,134.265s134.199-60.113,134.199-134.265c0-17.639-3.434-34.466-9.614-49.897
					c34.49-10.035,66.269-0.152,87.219,27.138c21.555,28.081,25.116,66.601,8.662,93.676c-4.602,7.573-9.587,13.327-14.693,17.097
					c-1.198-6.888-3.359-12.831-6.511-17.203c-4.6-6.387-11.174-9.354-18.473-8.389c-10.238,1.366-16.82,7.188-17.608,15.573
					c-0.968,10.304,7.427,21.412,19.114,25.285c2.907,0.965,7.483,1.943,13.066,1.274c-0.379,12.872-3.54,27.869-10.038,41.196
					c-6.899,14.154-19.799,31.206-42.068,32.063c-13.027,0.503-20.015-1.932-32.683-6.349c-14.74-5.141-34.928-12.179-76.936-18.977
					c-29.429-4.766-50.299,3.531-63.846,13.072c-14.626-23.123-40.484-45.899-76.157-56.762c-8.96-2.728-37.403-9.449-59.185,6.66
					c-5.917-3.1-12.884-5.213-20.555-5.742c-12.552-0.866-27.576,7.67-37.338,21.245c-10.987,15.279-13.343,33.578-6.464,50.21
					c15.841,38.303,49.82,25.224,50.164,25.085c2.945-1.179,4.372-4.511,3.21-7.467c-1.163-2.956-4.509-4.412-7.466-3.262
					c-2.425,0.94-24.015,8.389-35.247-18.77c-5.317-12.856-3.433-27.091,5.168-39.052c7.4-10.292,18.572-17.067,27.179-16.472
					c4.57,0.316,8.701,1.346,12.331,2.823c-6.774,8.365-9.14,17.723-6.163,24.846c2.338,5.591,7.713,8.973,14.747,9.28
					c14.498,0.568,20.166-7.163,20.588-14.664c0.39-6.935-3.311-14.547-9.915-20.801c8.89-5.161,23.767-9.519,45.587-2.875
					c34.723,10.574,57.879,32.473,70.455,53.166c-4.362,4.164-7.346,7.972-9.057,10.396c-9.94,14.082-12.897,29.51-7.531,39.307
					c3.331,6.078,9.386,9.379,17.142,9.379c0.435,0,0.875-0.011,1.321-0.032c11.487-0.537,19.263-8.204,20.8-20.51
					c1.26-10.085-1.468-22.753-7.924-35.864c11.59-8.434,29.93-16.075,56.314-11.801c41.01,6.638,60.646,13.485,74.982,18.483
					c13.071,4.559,21.712,7.58,36.924,6.983c21.824-0.839,40.289-14.526,51.994-38.536c7.554-15.496,11.367-33.909,11.199-49.869
					c7.402-3.813,15.537-11.034,23.433-24.027C485.37,279.602,481.517,235.723,457.127,203.951z M422.098,326.062
					c-7.145-2.37-11.666-8.883-11.256-13.248c0.329-3.506,4.339-4.768,7.646-5.208c0.391-0.054,0.806-0.09,1.238-0.09
					c1.883,0,4.12,0.69,6.351,3.785c2.492,3.459,4.191,8.854,4.985,15.412C428.027,327.239,425.024,327.032,422.098,326.062z
					 M70.688,380.385c-3.75-0.162-4.392-1.695-4.603-2.201c-1.161-2.778,0.367-8.581,5.521-14.341
					c5.115,4.392,7.836,9.438,7.649,12.766C79.063,380.031,74.503,380.567,70.688,380.385z M208.127,443.854
					c-1.12,8.969-6.181,10.238-9.889,10.412c-5.827,0.241-7.313-2.469-7.806-3.366c-2.669-4.872-1.177-15.746,6.837-27.098
					c1.109-1.571,2.85-3.826,5.265-6.378C207.15,427.731,208.968,437.122,208.127,443.854z"/>
				<g>
					<path style="fill:#261D2A;" d="M316.115,126.262c0.23-0.593-0.064-1.263-0.658-1.493c-0.592-0.232-1.262,0.063-1.494,0.658
						c-30.277,78-188.888,177.94-190.486,178.941c-0.54,0.338-0.704,1.051-0.366,1.592c0.219,0.349,0.595,0.541,0.979,0.541
						c0.208,0,0.42-0.056,0.611-0.176C126.306,305.322,285.561,204.975,316.115,126.262z"/>
					<path style="fill:#261D2A;" d="M333.383,142.509c0.278-0.573,0.039-1.263-0.534-1.542c-0.575-0.277-1.263-0.041-1.541,0.537
						c-0.558,1.15-57.359,115.803-193.862,179.536c-0.578,0.271-0.827,0.956-0.558,1.535c0.196,0.419,0.612,0.665,1.047,0.665
						c0.163,0,0.329-0.034,0.487-0.108C275.659,259.056,332.822,143.668,333.383,142.509z"/>
					<path style="fill:#261D2A;" d="M348.412,158.029c0.242-0.588-0.038-1.263-0.628-1.506c-0.579-0.248-1.263,0.034-1.506,0.627
						c-37.49,90.93-188.753,180.934-190.277,181.833c-0.549,0.325-0.731,1.03-0.408,1.58c0.215,0.365,0.599,0.568,0.995,0.568
						c0.199,0,0.401-0.052,0.585-0.16C158.703,340.07,310.626,249.677,348.412,158.029z"/>
					<path style="fill:#261D2A;" d="M213.655,121.972c6.424,1.346,14.619,2.41,24.48,2.41c13.505,0,30.127-2,49.555-8.015
						c0.608-0.187,0.949-0.834,0.761-1.443c-0.188-0.609-0.833-0.954-1.443-0.762c-63.244,19.581-97.115-3.456-97.45-3.691
						c-0.521-0.365-1.242-0.241-1.607,0.282c-0.366,0.521-0.242,1.24,0.278,1.608C188.582,112.608,197.075,118.499,213.655,121.972z
						"/>
					<path style="fill:#261D2A;" d="M256.987,165.596c0.517-0.196,0.79-0.722,0.712-1.248c8.07-8.058,16.015-16.302,23.698-24.659
						c0.294-0.08,0.58-0.145,0.874-0.226c0.614-0.169,0.975-0.805,0.804-1.418c-0.013-0.045-0.044-0.078-0.061-0.12
						c6.382-6.989,12.575-14.052,18.489-21.152c0.408-0.489,0.341-1.217-0.148-1.626c-0.491-0.41-1.217-0.34-1.626,0.147
						c-6.246,7.499-12.806,14.957-19.571,22.33c-69.957,18.695-113.187-15.217-113.618-15.564c-0.499-0.399-1.224-0.322-1.623,0.176
						c-0.4,0.496-0.322,1.222,0.174,1.621c0.345,0.28,27.572,21.719,73.692,21.719c11.658,0,24.538-1.387,38.482-4.818
						c-7.267,7.826-14.754,15.544-22.344,23.097c-51.466,18.259-107.771-31.247-108.337-31.753
						c-0.473-0.424-1.202-0.381-1.629,0.092c-0.424,0.476-0.383,1.204,0.092,1.63c0.487,0.435,41.346,36.41,85.792,36.41
						c6.773,0,13.631-0.851,20.441-2.776c-9.908,9.75-19.954,19.201-29.876,28.226c-37.578,1.381-89.696-43.136-90.219-43.586
						c-0.483-0.415-1.211-0.365-1.627,0.122c-0.416,0.482-0.362,1.211,0.122,1.628c0.132,0.115,13.446,11.539,31.296,22.616
						c8.656,5.372,16.839,9.749,24.523,13.121c-0.068,0.226-0.088,0.469-0.004,0.709c0.077,0.221,7.628,22.212,0.448,36.026
						c-0.085,0.164-0.115,0.337-0.118,0.509c-7.64,6.449-14.967,12.491-21.834,18.056c5.756-18.364-4.279-66.869-4.739-69.062
						c-0.131-0.622-0.747-1.037-1.366-0.893c-0.623,0.131-1.023,0.742-0.892,1.366c0.118,0.566,11.737,56.678,3.592,70.754
						c-0.126,0.218-0.153,0.457-0.13,0.69c-7.265,5.85-13.953,11.119-19.878,15.718c10.526-65.278-14.108-105.503-14.361-105.904
						c-0.34-0.541-1.052-0.706-1.59-0.365c-0.54,0.34-0.703,1.053-0.364,1.592c0.251,0.401,25.006,40.853,13.685,106.546
						c-0.01,0.056,0.006,0.109,0.005,0.164c-15.087,11.651-24.596,18.484-24.921,18.716c-0.518,0.372-0.639,1.093-0.268,1.612
						c0.225,0.316,0.579,0.482,0.94,0.482c0.232,0,0.466-0.07,0.669-0.214c0.92-0.659,75.143-53.988,141.773-120.197
						C256.427,165.788,256.708,165.701,256.987,165.596z M188.041,190.656c11.444,4.758,21.741,7.221,30.799,7.353
						c-10.019,9.059-19.883,17.668-29.322,25.692C193.822,211.018,189.406,194.995,188.041,190.656z"/>
					<path style="fill:#261D2A;" d="M107.879,203.408c-0.198-0.609-0.844-0.942-1.455-0.742c-0.605,0.196-0.937,0.848-0.74,1.454
						c0.074,0.228,7.263,23.008-2.484,49.265c-0.222,0.597,0.082,1.263,0.679,1.484c0.133,0.05,0.268,0.072,0.402,0.072
						c0.469,0,0.909-0.286,1.082-0.753C115.386,227.189,107.956,203.642,107.879,203.408z"/>
					<path style="fill:#261D2A;" d="M122.921,219.846c-3.202-20.848-9.8-38.628-9.867-38.804c-0.222-0.597-0.888-0.9-1.485-0.679
						c-0.597,0.225-0.899,0.891-0.676,1.486c0.26,0.699,25.774,70.03-0.312,96.132c-0.451,0.451-0.451,1.181,0,1.632
						c0.225,0.225,0.521,0.338,0.816,0.338s0.59-0.113,0.816-0.338C123.651,268.169,127.254,248.06,122.921,219.846z"/>
					<path style="fill:#261D2A;" d="M347.27,294.47c26.144-41.099,6.208-94.812,4.195-99.952c4.672-5.662,7.38-9.058,7.551-9.275
						c0.397-0.498,0.313-1.224-0.186-1.621c-0.501-0.399-1.226-0.316-1.621,0.187c-0.288,0.363-29.246,36.779-65.806,75.256
						c-48.294,50.825-87.853,82.151-114.398,90.588c-0.607,0.194-0.943,0.843-0.75,1.45c0.157,0.492,0.611,0.805,1.1,0.805
						c0.115,0,0.233-0.018,0.349-0.054c4.294-1.365,8.813-3.284,13.499-5.654c0.048,0.044,0.082,0.099,0.138,0.135
						c0.482,0.313,12.045,7.715,30.855,11.111c5.208,0.938,11.28,1.603,18.041,1.603c15.747,0,35.219-3.608,56.135-15.753
						c2.411,2.29,4.256,4.675,5.297,7.138c0.186,0.44,0.613,0.703,1.063,0.703c0.15,0,0.303-0.029,0.45-0.09
						c0.587-0.25,0.861-0.927,0.613-1.515c-8.529-20.165-63.782-34.497-66.849-35.277c5.039-4.253,10.104-8.717,15.154-13.324
						c0.116,0.093,0.251,0.167,0.403,0.211c0.581,0.169,58.237,17.133,64.897,38.603c0.153,0.494,0.61,0.812,1.102,0.812
						c0.113,0,0.228-0.016,0.341-0.052c0.61-0.189,0.95-0.836,0.761-1.445c-6.654-21.449-58.102-37.628-65.598-39.881
						c4.155-3.823,8.296-7.733,12.402-11.702c4.069,1.643,57.146,23.357,64.313,39.128c0.193,0.426,0.612,0.676,1.051,0.676
						c0.159,0,0.321-0.034,0.477-0.104c0.58-0.264,0.836-0.947,0.572-1.529c-7.264-15.988-56.076-36.456-64.601-39.931
						c3.128-3.044,6.234-6.115,9.306-9.2c30.693,6.875,67.042,33.53,67.406,33.8c0.206,0.151,0.446,0.225,0.684,0.225
						c0.354,0,0.703-0.162,0.93-0.469c0.379-0.512,0.269-1.236-0.243-1.614c-0.363-0.268-36.011-26.406-66.874-33.86
						c3.383-3.418,6.724-6.846,10.007-10.263c0.108,0.198,0.255,0.376,0.472,0.485c0.242,0.123,11.337,5.765,24.019,12.636
						c-0.084,0.512,0.164,1.034,0.662,1.248c0.148,0.063,0.302,0.092,0.454,0.092c0.286,0,0.536-0.137,0.748-0.328
						c10.549,5.746,21.845,12.172,28.778,16.915c0.085,0.209,0.211,0.403,0.414,0.537c0.195,0.131,0.416,0.192,0.634,0.192
						c0.003,0,0.005-0.002,0.008-0.002c2.148,1.515,3.783,2.829,4.715,3.855c0.228,0.253,0.541,0.379,0.854,0.379
						c0.277,0,0.555-0.099,0.776-0.3c0.471-0.428,0.506-1.159,0.078-1.63C351.074,297.346,349.421,296.004,347.27,294.47z
						 M221.081,327.032c0.399,0.223,6.134,3.344,14.921,3.344c6.173,0,13.855-1.542,22.25-6.71c0.11-0.067,0.193-0.159,0.271-0.253
						c6.214,2.228,12.994,4.925,19.345,8.005c-29.852,23-66.014,5.59-68.829,4.171c3.939-2.651,7.947-5.524,12.003-8.591
						C221.057,327.007,221.065,327.023,221.081,327.032z M193.573,344.976c4.415-2.35,8.973-5.093,13.634-8.162
						c0.08,0.298,0.272,0.564,0.565,0.72c0.246,0.131,15.415,8.02,34.578,8.02c11.942,0,25.436-3.071,37.83-12.989
						c5.449,2.774,10.46,5.829,14.363,9.1C243.275,371.024,200.408,348.905,193.573,344.976z M236.298,316.469
						c0.219,0.056,8.656,2.229,19.437,5.961c-15.989,9.16-29.214,4.52-32.643,3.005c4.081-3.137,8.204-6.458,12.349-9.926
						C235.504,315.96,235.829,316.351,236.298,316.469z M345.371,293.156c-3.46-2.341-7.84-5.025-12.613-7.812
						c0.072-0.074,0.163-0.125,0.215-0.221c13.137-23.966,2.863-68.943,2.419-70.846c-0.038-0.165-0.113-0.31-0.209-0.436
						c5.799-6.75,10.735-12.629,14.591-17.279C353.245,205.971,369.464,255.184,345.371,293.156z M333.39,215.924
						c1.505,7.131,9.163,46.922-2.44,68.091c-0.042,0.076-0.051,0.158-0.074,0.238c-4.571-2.639-9.417-5.336-14.108-7.891
						c9.276-23.532-1.112-38.036-1.572-38.656c-0.163-0.218-0.393-0.346-0.639-0.41C321.444,229.647,327.782,222.425,333.39,215.924
						z M290.942,262.759c7.827-8.182,15.31-16.271,22.264-23.967c0.037,0.1,0.071,0.203,0.138,0.293
						c0.105,0.14,9.997,13.954,1.379,36.167c-12.189-6.599-22.81-12.001-23.776-12.491
						C290.945,262.759,290.943,262.759,290.942,262.759z"/>
					<path style="fill:#261D2A;" d="M206.772,104.717c0.183,0.106,12.477,7.088,31.22,7.088c9.29,0,20.165-1.716,31.933-6.834
						c0.585-0.255,0.853-0.936,0.598-1.52c-0.254-0.584-0.932-0.845-1.518-0.6c-34.397,14.966-60.809,0.025-61.071-0.131
						c-0.549-0.318-1.256-0.133-1.577,0.419C206.036,103.691,206.222,104.397,206.772,104.717z"/>
				</g>
			</g>
			<g>
				<path style="fill:#D3AD29;" d="M165.339,62.688c2.351-2.664,4.168-5.872,5.173-9.53c3.528-12.832-4.01-26.096-16.835-29.626
					c-12.826-3.53-26.083,4.011-29.611,16.844c-3.528,12.832,4.009,26.096,16.835,29.626c1.402,0.386,2.809,0.616,4.208,0.745
					c12.688,26.794,44.419,97.014,59.553,123.302c0,0,8.825,2.119,9.848,1.095C215.386,194.268,179.75,100.193,165.339,62.688z"/>
				<path style="fill:#261D2A;" d="M150.265,68.808c-0.559,0-1.049-0.406-1.138-0.976c-0.099-0.629,0.331-1.22,0.961-1.319
					c0.15-0.023,15.083-2.494,19.345-13.762c0.225-0.597,0.898-0.891,1.487-0.672c0.596,0.225,0.897,0.893,0.672,1.488
					c-4.744,12.538-20.481,15.124-21.149,15.228C150.383,68.804,150.323,68.808,150.265,68.808z"/>
				<path style="fill:#261D2A;" d="M160.074,39.949c-0.373,0-0.739-0.18-0.961-0.514c-5.265-7.9-14.262-5.887-14.351-5.866
					c-0.619,0.156-1.243-0.237-1.388-0.859c-0.145-0.62,0.239-1.242,0.859-1.387c0.107-0.027,10.658-2.388,16.801,6.831
					c0.354,0.53,0.211,1.247-0.32,1.601C160.516,39.886,160.294,39.949,160.074,39.949z"/>
				<path style="fill:#261D2A;" d="M188.895,139.391c-0.462,0-0.899-0.28-1.076-0.737l-18.584-48
					c-0.23-0.595,0.065-1.263,0.659-1.493c0.595-0.237,1.263,0.063,1.493,0.658l18.584,48c0.23,0.595-0.065,1.263-0.659,1.493
					C189.174,139.366,189.033,139.391,188.895,139.391z"/>
				<path style="fill:#261D2A;" d="M193.101,151.272c-0.469,0-0.91-0.289-1.083-0.755l-2.086-5.652
					c-0.22-0.597,0.086-1.26,0.683-1.481c0.596-0.221,1.261,0.086,1.483,0.683l2.086,5.652c0.22,0.597-0.086,1.26-0.683,1.481
					C193.369,151.25,193.234,151.272,193.101,151.272z"/>
			</g>
			<g>
				<path style="fill:#D3AD29;" d="M80.107,129.93c0.604-3.502,0.468-7.187-0.595-10.828c-3.727-12.776-17.1-20.109-29.87-16.38
					c-12.769,3.729-20.1,17.109-16.372,29.885c3.727,12.776,17.1,20.11,29.87,16.381c1.396-0.408,2.714-0.95,3.973-1.575
					c32.002,20.791,89.118,63.653,95.339,61.836l-2.308-15.007C144.2,176.747,103.078,147.45,80.107,129.93z"/>
				<path style="fill:#261D2A;" d="M69.881,143.226c-0.326,0-0.649-0.138-0.878-0.404c-0.414-0.485-0.357-1.213,0.126-1.628
					c0.116-0.099,11.532-10.042,9.251-21.874c-0.122-0.627,0.288-1.231,0.914-1.353c0.631-0.119,1.23,0.289,1.351,0.915
					c2.54,13.165-9.502,23.628-10.016,24.066C70.411,143.135,70.146,143.226,69.881,143.226z"/>
				<path style="fill:#261D2A;" d="M46.503,116.283c-0.296,0-0.592-0.113-0.817-0.34c-0.451-0.451-0.448-1.181,0.002-1.632
					c0.078-0.074,7.829-7.621,17.885-3.003c0.579,0.266,0.834,0.951,0.568,1.531c-0.267,0.577-0.954,0.832-1.53,0.566
					c-8.624-3.952-15.228,2.478-15.293,2.543C47.092,116.17,46.797,116.283,46.503,116.283z"/>
				<path style="fill:#261D2A;" d="M139.783,183.026c-0.242,0-0.488-0.077-0.696-0.234l-40.995-31.102
					c-0.507-0.386-0.607-1.109-0.222-1.617c0.383-0.51,1.105-0.609,1.617-0.223l40.995,31.102c0.507,0.386,0.607,1.109,0.222,1.617
					C140.477,182.868,140.132,183.026,139.783,183.026z"/>
				<path style="fill:#261D2A;" d="M149.595,190.933c-0.249,0-0.499-0.081-0.711-0.246l-4.74-3.718
					c-0.501-0.395-0.589-1.118-0.196-1.621c0.392-0.503,1.118-0.586,1.62-0.196l4.74,3.718c0.501,0.395,0.589,1.118,0.196,1.621
					C150.277,190.782,149.938,190.933,149.595,190.933z"/>
			</g>
		</g>
	</g>
</g>
<g id="_x30_2">
</g>
<g id="_x30_1">
</g>
<g id="PREVIEW">
</g>
</svg>
